<?xml version="1.0" encoding="utf-8" standalone="no"?>
<!DOCTYPE svg PUBLIC "-//W3C//DTD SVG 1.1//EN"
  "http://www.w3.org/Graphics/SVG/1.1/DTD/svg11.dtd">
<svg xmlns:xlink="http://www.w3.org/1999/xlink" width="274.460234pt" height="119.189312pt" viewBox="0 0 274.460234 119.189312" xmlns="http://www.w3.org/2000/svg" version="1.1">
 <metadata>
  <rdf:RDF xmlns:dc="http://purl.org/dc/elements/1.1/" xmlns:cc="http://creativecommons.org/ns#" xmlns:rdf="http://www.w3.org/1999/02/22-rdf-syntax-ns#">
   <cc:Work>
    <dc:type rdf:resource="http://purl.org/dc/dcmitype/StillImage"/>
    <dc:date>2024-06-13T20:33:34.321758</dc:date>
    <dc:format>image/svg+xml</dc:format>
    <dc:creator>
     <cc:Agent>
      <dc:title>Matplotlib v3.7.1, https://matplotlib.org/</dc:title>
     </cc:Agent>
    </dc:creator>
   </cc:Work>
  </rdf:RDF>
 </metadata>
 <defs>
  <style type="text/css">*{stroke-linejoin: round; stroke-linecap: butt}</style>
 </defs>
 <g id="figure_1">
  <g id="patch_1">
   <path d="M 0 119.189312 
L 274.460234 119.189312 
L 274.460234 0 
L 0 0 
z
" style="fill: #ffffff"/>
  </g>
  <g id="axes_1">
   <g id="patch_2">
    <path d="M 30.262344 91.844 
L 197.662344 91.844 
L 197.662344 17 
L 30.262344 17 
z
" style="fill: #ffffff"/>
   </g>
   <g id="matplotlib.axis_1">
    <g id="xtick_1">
     <g id="line2d_1">
      <defs>
       <path id="mfb56fc6cb4" d="M 0 0 
L 0 3.5 
" style="stroke: #262626; stroke-width: 0.8"/>
      </defs>
      <g>
       <use xlink:href="#mfb56fc6cb4" x="30.262344" y="91.844" style="fill: #262626; stroke: #262626; stroke-width: 0.8"/>
      </g>
     </g>
     <g id="text_1">
      <!-- 0 -->
      <g style="fill: #262626" transform="translate(28.872109 102.422906) scale(0.05 -0.05)">
       <defs>
        <path id="ArialMT-30" d="M 266 2259 
Q 266 3072 433 3567 
Q 600 4063 929 4331 
Q 1259 4600 1759 4600 
Q 2128 4600 2406 4451 
Q 2684 4303 2865 4023 
Q 3047 3744 3150 3342 
Q 3253 2941 3253 2259 
Q 3253 1453 3087 958 
Q 2922 463 2592 192 
Q 2263 -78 1759 -78 
Q 1097 -78 719 397 
Q 266 969 266 2259 
z
M 844 2259 
Q 844 1131 1108 757 
Q 1372 384 1759 384 
Q 2147 384 2411 759 
Q 2675 1134 2675 2259 
Q 2675 3391 2411 3762 
Q 2147 4134 1753 4134 
Q 1366 4134 1134 3806 
Q 844 3388 844 2259 
z
" transform="scale(0.015625)"/>
       </defs>
       <use xlink:href="#ArialMT-30"/>
      </g>
     </g>
    </g>
    <g id="xtick_2">
     <g id="line2d_2">
      <g>
       <use xlink:href="#mfb56fc6cb4" x="49.285071" y="91.844" style="fill: #262626; stroke: #262626; stroke-width: 0.8"/>
      </g>
     </g>
     <g id="text_2">
      <!-- 50 -->
      <g style="fill: #262626" transform="translate(46.504602 102.422906) scale(0.05 -0.05)">
       <defs>
        <path id="ArialMT-35" d="M 266 1200 
L 856 1250 
Q 922 819 1161 601 
Q 1400 384 1738 384 
Q 2144 384 2425 690 
Q 2706 997 2706 1503 
Q 2706 1984 2436 2262 
Q 2166 2541 1728 2541 
Q 1456 2541 1237 2417 
Q 1019 2294 894 2097 
L 366 2166 
L 809 4519 
L 3088 4519 
L 3088 3981 
L 1259 3981 
L 1013 2750 
Q 1425 3038 1878 3038 
Q 2478 3038 2890 2622 
Q 3303 2206 3303 1553 
Q 3303 931 2941 478 
Q 2500 -78 1738 -78 
Q 1113 -78 717 272 
Q 322 622 266 1200 
z
" transform="scale(0.015625)"/>
       </defs>
       <use xlink:href="#ArialMT-35"/>
       <use xlink:href="#ArialMT-30" x="55.615234"/>
      </g>
     </g>
    </g>
    <g id="xtick_3">
     <g id="line2d_3">
      <g>
       <use xlink:href="#mfb56fc6cb4" x="68.307798" y="91.844" style="fill: #262626; stroke: #262626; stroke-width: 0.8"/>
      </g>
     </g>
     <g id="text_3">
      <!-- 100 -->
      <g style="fill: #262626" transform="translate(64.137095 102.422906) scale(0.05 -0.05)">
       <defs>
        <path id="ArialMT-31" d="M 2384 0 
L 1822 0 
L 1822 3584 
Q 1619 3391 1289 3197 
Q 959 3003 697 2906 
L 697 3450 
Q 1169 3672 1522 3987 
Q 1875 4303 2022 4600 
L 2384 4600 
L 2384 0 
z
" transform="scale(0.015625)"/>
       </defs>
       <use xlink:href="#ArialMT-31"/>
       <use xlink:href="#ArialMT-30" x="55.615234"/>
       <use xlink:href="#ArialMT-30" x="111.230469"/>
      </g>
     </g>
    </g>
    <g id="xtick_4">
     <g id="line2d_4">
      <g>
       <use xlink:href="#mfb56fc6cb4" x="87.330526" y="91.844" style="fill: #262626; stroke: #262626; stroke-width: 0.8"/>
      </g>
     </g>
     <g id="text_4">
      <!-- 150 -->
      <g style="fill: #262626" transform="translate(83.159822 102.422906) scale(0.05 -0.05)">
       <use xlink:href="#ArialMT-31"/>
       <use xlink:href="#ArialMT-35" x="55.615234"/>
       <use xlink:href="#ArialMT-30" x="111.230469"/>
      </g>
     </g>
    </g>
    <g id="xtick_5">
     <g id="line2d_5">
      <g>
       <use xlink:href="#mfb56fc6cb4" x="106.353253" y="91.844" style="fill: #262626; stroke: #262626; stroke-width: 0.8"/>
      </g>
     </g>
     <g id="text_5">
      <!-- 200 -->
      <g style="fill: #262626" transform="translate(102.18255 102.422906) scale(0.05 -0.05)">
       <defs>
        <path id="ArialMT-32" d="M 3222 541 
L 3222 0 
L 194 0 
Q 188 203 259 391 
Q 375 700 629 1000 
Q 884 1300 1366 1694 
Q 2113 2306 2375 2664 
Q 2638 3022 2638 3341 
Q 2638 3675 2398 3904 
Q 2159 4134 1775 4134 
Q 1369 4134 1125 3890 
Q 881 3647 878 3216 
L 300 3275 
Q 359 3922 746 4261 
Q 1134 4600 1788 4600 
Q 2447 4600 2831 4234 
Q 3216 3869 3216 3328 
Q 3216 3053 3103 2787 
Q 2991 2522 2730 2228 
Q 2469 1934 1863 1422 
Q 1356 997 1212 845 
Q 1069 694 975 541 
L 3222 541 
z
" transform="scale(0.015625)"/>
       </defs>
       <use xlink:href="#ArialMT-32"/>
       <use xlink:href="#ArialMT-30" x="55.615234"/>
       <use xlink:href="#ArialMT-30" x="111.230469"/>
      </g>
     </g>
    </g>
    <g id="xtick_6">
     <g id="line2d_6">
      <g>
       <use xlink:href="#mfb56fc6cb4" x="125.37598" y="91.844" style="fill: #262626; stroke: #262626; stroke-width: 0.8"/>
      </g>
     </g>
     <g id="text_6">
      <!-- 250 -->
      <g style="fill: #262626" transform="translate(121.205277 102.422906) scale(0.05 -0.05)">
       <use xlink:href="#ArialMT-32"/>
       <use xlink:href="#ArialMT-35" x="55.615234"/>
       <use xlink:href="#ArialMT-30" x="111.230469"/>
      </g>
     </g>
    </g>
    <g id="xtick_7">
     <g id="line2d_7">
      <g>
       <use xlink:href="#mfb56fc6cb4" x="144.398707" y="91.844" style="fill: #262626; stroke: #262626; stroke-width: 0.8"/>
      </g>
     </g>
     <g id="text_7">
      <!-- 300 -->
      <g style="fill: #262626" transform="translate(140.228004 102.422906) scale(0.05 -0.05)">
       <defs>
        <path id="ArialMT-33" d="M 269 1209 
L 831 1284 
Q 928 806 1161 595 
Q 1394 384 1728 384 
Q 2125 384 2398 659 
Q 2672 934 2672 1341 
Q 2672 1728 2419 1979 
Q 2166 2231 1775 2231 
Q 1616 2231 1378 2169 
L 1441 2663 
Q 1497 2656 1531 2656 
Q 1891 2656 2178 2843 
Q 2466 3031 2466 3422 
Q 2466 3731 2256 3934 
Q 2047 4138 1716 4138 
Q 1388 4138 1169 3931 
Q 950 3725 888 3313 
L 325 3413 
Q 428 3978 793 4289 
Q 1159 4600 1703 4600 
Q 2078 4600 2393 4439 
Q 2709 4278 2876 4000 
Q 3044 3722 3044 3409 
Q 3044 3113 2884 2869 
Q 2725 2625 2413 2481 
Q 2819 2388 3044 2092 
Q 3269 1797 3269 1353 
Q 3269 753 2831 336 
Q 2394 -81 1725 -81 
Q 1122 -81 723 278 
Q 325 638 269 1209 
z
" transform="scale(0.015625)"/>
       </defs>
       <use xlink:href="#ArialMT-33"/>
       <use xlink:href="#ArialMT-30" x="55.615234"/>
       <use xlink:href="#ArialMT-30" x="111.230469"/>
      </g>
     </g>
    </g>
    <g id="xtick_8">
     <g id="line2d_8">
      <g>
       <use xlink:href="#mfb56fc6cb4" x="163.421435" y="91.844" style="fill: #262626; stroke: #262626; stroke-width: 0.8"/>
      </g>
     </g>
     <g id="text_8">
      <!-- 350 -->
      <g style="fill: #262626" transform="translate(159.250732 102.422906) scale(0.05 -0.05)">
       <use xlink:href="#ArialMT-33"/>
       <use xlink:href="#ArialMT-35" x="55.615234"/>
       <use xlink:href="#ArialMT-30" x="111.230469"/>
      </g>
     </g>
    </g>
    <g id="xtick_9">
     <g id="line2d_9">
      <g>
       <use xlink:href="#mfb56fc6cb4" x="182.444162" y="91.844" style="fill: #262626; stroke: #262626; stroke-width: 0.8"/>
      </g>
     </g>
     <g id="text_9">
      <!-- 400 -->
      <g style="fill: #262626" transform="translate(178.273459 102.422906) scale(0.05 -0.05)">
       <defs>
        <path id="ArialMT-34" d="M 2069 0 
L 2069 1097 
L 81 1097 
L 81 1613 
L 2172 4581 
L 2631 4581 
L 2631 1613 
L 3250 1613 
L 3250 1097 
L 2631 1097 
L 2631 0 
L 2069 0 
z
M 2069 1613 
L 2069 3678 
L 634 1613 
L 2069 1613 
z
" transform="scale(0.015625)"/>
       </defs>
       <use xlink:href="#ArialMT-34"/>
       <use xlink:href="#ArialMT-30" x="55.615234"/>
       <use xlink:href="#ArialMT-30" x="111.230469"/>
      </g>
     </g>
    </g>
    <g id="text_10">
     <!-- Distance to entrance [mm] -->
     <g style="fill: #262626" transform="translate(84.785781 110.995563) scale(0.05 -0.05)">
      <defs>
       <path id="ArialMT-44" d="M 494 0 
L 494 4581 
L 2072 4581 
Q 2606 4581 2888 4516 
Q 3281 4425 3559 4188 
Q 3922 3881 4101 3404 
Q 4281 2928 4281 2316 
Q 4281 1794 4159 1391 
Q 4038 988 3847 723 
Q 3656 459 3429 307 
Q 3203 156 2883 78 
Q 2563 0 2147 0 
L 494 0 
z
M 1100 541 
L 2078 541 
Q 2531 541 2789 625 
Q 3047 709 3200 863 
Q 3416 1078 3536 1442 
Q 3656 1806 3656 2325 
Q 3656 3044 3420 3430 
Q 3184 3816 2847 3947 
Q 2603 4041 2063 4041 
L 1100 4041 
L 1100 541 
z
" transform="scale(0.015625)"/>
       <path id="ArialMT-69" d="M 425 3934 
L 425 4581 
L 988 4581 
L 988 3934 
L 425 3934 
z
M 425 0 
L 425 3319 
L 988 3319 
L 988 0 
L 425 0 
z
" transform="scale(0.015625)"/>
       <path id="ArialMT-73" d="M 197 991 
L 753 1078 
Q 800 744 1014 566 
Q 1228 388 1613 388 
Q 2000 388 2187 545 
Q 2375 703 2375 916 
Q 2375 1106 2209 1216 
Q 2094 1291 1634 1406 
Q 1016 1563 777 1677 
Q 538 1791 414 1992 
Q 291 2194 291 2438 
Q 291 2659 392 2848 
Q 494 3038 669 3163 
Q 800 3259 1026 3326 
Q 1253 3394 1513 3394 
Q 1903 3394 2198 3281 
Q 2494 3169 2634 2976 
Q 2775 2784 2828 2463 
L 2278 2388 
Q 2241 2644 2061 2787 
Q 1881 2931 1553 2931 
Q 1166 2931 1000 2803 
Q 834 2675 834 2503 
Q 834 2394 903 2306 
Q 972 2216 1119 2156 
Q 1203 2125 1616 2013 
Q 2213 1853 2448 1751 
Q 2684 1650 2818 1456 
Q 2953 1263 2953 975 
Q 2953 694 2789 445 
Q 2625 197 2315 61 
Q 2006 -75 1616 -75 
Q 969 -75 630 194 
Q 291 463 197 991 
z
" transform="scale(0.015625)"/>
       <path id="ArialMT-74" d="M 1650 503 
L 1731 6 
Q 1494 -44 1306 -44 
Q 1000 -44 831 53 
Q 663 150 594 308 
Q 525 466 525 972 
L 525 2881 
L 113 2881 
L 113 3319 
L 525 3319 
L 525 4141 
L 1084 4478 
L 1084 3319 
L 1650 3319 
L 1650 2881 
L 1084 2881 
L 1084 941 
Q 1084 700 1114 631 
Q 1144 563 1211 522 
Q 1278 481 1403 481 
Q 1497 481 1650 503 
z
" transform="scale(0.015625)"/>
       <path id="ArialMT-61" d="M 2588 409 
Q 2275 144 1986 34 
Q 1697 -75 1366 -75 
Q 819 -75 525 192 
Q 231 459 231 875 
Q 231 1119 342 1320 
Q 453 1522 633 1644 
Q 813 1766 1038 1828 
Q 1203 1872 1538 1913 
Q 2219 1994 2541 2106 
Q 2544 2222 2544 2253 
Q 2544 2597 2384 2738 
Q 2169 2928 1744 2928 
Q 1347 2928 1158 2789 
Q 969 2650 878 2297 
L 328 2372 
Q 403 2725 575 2942 
Q 747 3159 1072 3276 
Q 1397 3394 1825 3394 
Q 2250 3394 2515 3294 
Q 2781 3194 2906 3042 
Q 3031 2891 3081 2659 
Q 3109 2516 3109 2141 
L 3109 1391 
Q 3109 606 3145 398 
Q 3181 191 3288 0 
L 2700 0 
Q 2613 175 2588 409 
z
M 2541 1666 
Q 2234 1541 1622 1453 
Q 1275 1403 1131 1340 
Q 988 1278 909 1158 
Q 831 1038 831 891 
Q 831 666 1001 516 
Q 1172 366 1500 366 
Q 1825 366 2078 508 
Q 2331 650 2450 897 
Q 2541 1088 2541 1459 
L 2541 1666 
z
" transform="scale(0.015625)"/>
       <path id="ArialMT-6e" d="M 422 0 
L 422 3319 
L 928 3319 
L 928 2847 
Q 1294 3394 1984 3394 
Q 2284 3394 2536 3286 
Q 2788 3178 2913 3003 
Q 3038 2828 3088 2588 
Q 3119 2431 3119 2041 
L 3119 0 
L 2556 0 
L 2556 2019 
Q 2556 2363 2490 2533 
Q 2425 2703 2258 2804 
Q 2091 2906 1866 2906 
Q 1506 2906 1245 2678 
Q 984 2450 984 1813 
L 984 0 
L 422 0 
z
" transform="scale(0.015625)"/>
       <path id="ArialMT-63" d="M 2588 1216 
L 3141 1144 
Q 3050 572 2676 248 
Q 2303 -75 1759 -75 
Q 1078 -75 664 370 
Q 250 816 250 1647 
Q 250 2184 428 2587 
Q 606 2991 970 3192 
Q 1334 3394 1763 3394 
Q 2303 3394 2647 3120 
Q 2991 2847 3088 2344 
L 2541 2259 
Q 2463 2594 2264 2762 
Q 2066 2931 1784 2931 
Q 1359 2931 1093 2626 
Q 828 2322 828 1663 
Q 828 994 1084 691 
Q 1341 388 1753 388 
Q 2084 388 2306 591 
Q 2528 794 2588 1216 
z
" transform="scale(0.015625)"/>
       <path id="ArialMT-65" d="M 2694 1069 
L 3275 997 
Q 3138 488 2766 206 
Q 2394 -75 1816 -75 
Q 1088 -75 661 373 
Q 234 822 234 1631 
Q 234 2469 665 2931 
Q 1097 3394 1784 3394 
Q 2450 3394 2872 2941 
Q 3294 2488 3294 1666 
Q 3294 1616 3291 1516 
L 816 1516 
Q 847 969 1125 678 
Q 1403 388 1819 388 
Q 2128 388 2347 550 
Q 2566 713 2694 1069 
z
M 847 1978 
L 2700 1978 
Q 2663 2397 2488 2606 
Q 2219 2931 1791 2931 
Q 1403 2931 1139 2672 
Q 875 2413 847 1978 
z
" transform="scale(0.015625)"/>
       <path id="ArialMT-20" transform="scale(0.015625)"/>
       <path id="ArialMT-6f" d="M 213 1659 
Q 213 2581 725 3025 
Q 1153 3394 1769 3394 
Q 2453 3394 2887 2945 
Q 3322 2497 3322 1706 
Q 3322 1066 3130 698 
Q 2938 331 2570 128 
Q 2203 -75 1769 -75 
Q 1072 -75 642 372 
Q 213 819 213 1659 
z
M 791 1659 
Q 791 1022 1069 705 
Q 1347 388 1769 388 
Q 2188 388 2466 706 
Q 2744 1025 2744 1678 
Q 2744 2294 2464 2611 
Q 2184 2928 1769 2928 
Q 1347 2928 1069 2612 
Q 791 2297 791 1659 
z
" transform="scale(0.015625)"/>
       <path id="ArialMT-72" d="M 416 0 
L 416 3319 
L 922 3319 
L 922 2816 
Q 1116 3169 1280 3281 
Q 1444 3394 1641 3394 
Q 1925 3394 2219 3213 
L 2025 2691 
Q 1819 2813 1613 2813 
Q 1428 2813 1281 2702 
Q 1134 2591 1072 2394 
Q 978 2094 978 1738 
L 978 0 
L 416 0 
z
" transform="scale(0.015625)"/>
       <path id="ArialMT-5b" d="M 434 -1272 
L 434 4581 
L 1675 4581 
L 1675 4116 
L 997 4116 
L 997 -806 
L 1675 -806 
L 1675 -1272 
L 434 -1272 
z
" transform="scale(0.015625)"/>
       <path id="ArialMT-6d" d="M 422 0 
L 422 3319 
L 925 3319 
L 925 2853 
Q 1081 3097 1340 3245 
Q 1600 3394 1931 3394 
Q 2300 3394 2536 3241 
Q 2772 3088 2869 2813 
Q 3263 3394 3894 3394 
Q 4388 3394 4653 3120 
Q 4919 2847 4919 2278 
L 4919 0 
L 4359 0 
L 4359 2091 
Q 4359 2428 4304 2576 
Q 4250 2725 4106 2815 
Q 3963 2906 3769 2906 
Q 3419 2906 3187 2673 
Q 2956 2441 2956 1928 
L 2956 0 
L 2394 0 
L 2394 2156 
Q 2394 2531 2256 2718 
Q 2119 2906 1806 2906 
Q 1569 2906 1367 2781 
Q 1166 2656 1075 2415 
Q 984 2175 984 1722 
L 984 0 
L 422 0 
z
" transform="scale(0.015625)"/>
       <path id="ArialMT-5d" d="M 1363 -1272 
L 122 -1272 
L 122 -806 
L 800 -806 
L 800 4116 
L 122 4116 
L 122 4581 
L 1363 4581 
L 1363 -1272 
z
" transform="scale(0.015625)"/>
      </defs>
      <use xlink:href="#ArialMT-44"/>
      <use xlink:href="#ArialMT-69" x="72.216797"/>
      <use xlink:href="#ArialMT-73" x="94.433594"/>
      <use xlink:href="#ArialMT-74" x="144.433594"/>
      <use xlink:href="#ArialMT-61" x="172.216797"/>
      <use xlink:href="#ArialMT-6e" x="227.832031"/>
      <use xlink:href="#ArialMT-63" x="283.447266"/>
      <use xlink:href="#ArialMT-65" x="333.447266"/>
      <use xlink:href="#ArialMT-20" x="389.0625"/>
      <use xlink:href="#ArialMT-74" x="416.845703"/>
      <use xlink:href="#ArialMT-6f" x="444.628906"/>
      <use xlink:href="#ArialMT-20" x="500.244141"/>
      <use xlink:href="#ArialMT-65" x="528.027344"/>
      <use xlink:href="#ArialMT-6e" x="583.642578"/>
      <use xlink:href="#ArialMT-74" x="639.257812"/>
      <use xlink:href="#ArialMT-72" x="667.041016"/>
      <use xlink:href="#ArialMT-61" x="700.341797"/>
      <use xlink:href="#ArialMT-6e" x="755.957031"/>
      <use xlink:href="#ArialMT-63" x="811.572266"/>
      <use xlink:href="#ArialMT-65" x="861.572266"/>
      <use xlink:href="#ArialMT-20" x="917.1875"/>
      <use xlink:href="#ArialMT-5b" x="944.970703"/>
      <use xlink:href="#ArialMT-6d" x="972.753906"/>
      <use xlink:href="#ArialMT-6d" x="1056.054688"/>
      <use xlink:href="#ArialMT-5d" x="1139.355469"/>
     </g>
    </g>
   </g>
   <g id="matplotlib.axis_2">
    <g id="ytick_1">
     <g id="line2d_10">
      <defs>
       <path id="mb63a6c1959" d="M 0 0 
L -1 0 
" style="stroke: #262626; stroke-width: 0.4"/>
      </defs>
      <g>
       <use xlink:href="#mb63a6c1959" x="30.262344" y="91.844" style="fill: #262626; stroke: #262626; stroke-width: 0.4"/>
      </g>
     </g>
     <g id="text_11">
      <!-- 0.0 -->
      <g style="fill: #262626" transform="translate(21.312344 93.633453) scale(0.05 -0.05)">
       <defs>
        <path id="ArialMT-2e" d="M 581 0 
L 581 641 
L 1222 641 
L 1222 0 
L 581 0 
z
" transform="scale(0.015625)"/>
       </defs>
       <use xlink:href="#ArialMT-30"/>
       <use xlink:href="#ArialMT-2e" x="55.615234"/>
       <use xlink:href="#ArialMT-30" x="83.398438"/>
      </g>
     </g>
    </g>
    <g id="ytick_2">
     <g id="line2d_11">
      <g>
       <use xlink:href="#mb63a6c1959" x="30.262344" y="76.8752" style="fill: #262626; stroke: #262626; stroke-width: 0.4"/>
      </g>
     </g>
     <g id="text_12">
      <!-- 0.2 -->
      <g style="fill: #262626" transform="translate(21.312344 78.664653) scale(0.05 -0.05)">
       <use xlink:href="#ArialMT-30"/>
       <use xlink:href="#ArialMT-2e" x="55.615234"/>
       <use xlink:href="#ArialMT-32" x="83.398438"/>
      </g>
     </g>
    </g>
    <g id="ytick_3">
     <g id="line2d_12">
      <g>
       <use xlink:href="#mb63a6c1959" x="30.262344" y="61.9064" style="fill: #262626; stroke: #262626; stroke-width: 0.4"/>
      </g>
     </g>
     <g id="text_13">
      <!-- 0.4 -->
      <g style="fill: #262626" transform="translate(21.312344 63.695853) scale(0.05 -0.05)">
       <use xlink:href="#ArialMT-30"/>
       <use xlink:href="#ArialMT-2e" x="55.615234"/>
       <use xlink:href="#ArialMT-34" x="83.398438"/>
      </g>
     </g>
    </g>
    <g id="ytick_4">
     <g id="line2d_13">
      <g>
       <use xlink:href="#mb63a6c1959" x="30.262344" y="46.9376" style="fill: #262626; stroke: #262626; stroke-width: 0.4"/>
      </g>
     </g>
     <g id="text_14">
      <!-- 0.6 -->
      <g style="fill: #262626" transform="translate(21.312344 48.727053) scale(0.05 -0.05)">
       <defs>
        <path id="ArialMT-36" d="M 3184 3459 
L 2625 3416 
Q 2550 3747 2413 3897 
Q 2184 4138 1850 4138 
Q 1581 4138 1378 3988 
Q 1113 3794 959 3422 
Q 806 3050 800 2363 
Q 1003 2672 1297 2822 
Q 1591 2972 1913 2972 
Q 2475 2972 2870 2558 
Q 3266 2144 3266 1488 
Q 3266 1056 3080 686 
Q 2894 316 2569 119 
Q 2244 -78 1831 -78 
Q 1128 -78 684 439 
Q 241 956 241 2144 
Q 241 3472 731 4075 
Q 1159 4600 1884 4600 
Q 2425 4600 2770 4297 
Q 3116 3994 3184 3459 
z
M 888 1484 
Q 888 1194 1011 928 
Q 1134 663 1356 523 
Q 1578 384 1822 384 
Q 2178 384 2434 671 
Q 2691 959 2691 1453 
Q 2691 1928 2437 2201 
Q 2184 2475 1800 2475 
Q 1419 2475 1153 2201 
Q 888 1928 888 1484 
z
" transform="scale(0.015625)"/>
       </defs>
       <use xlink:href="#ArialMT-30"/>
       <use xlink:href="#ArialMT-2e" x="55.615234"/>
       <use xlink:href="#ArialMT-36" x="83.398438"/>
      </g>
     </g>
    </g>
    <g id="ytick_5">
     <g id="line2d_14">
      <g>
       <use xlink:href="#mb63a6c1959" x="30.262344" y="31.9688" style="fill: #262626; stroke: #262626; stroke-width: 0.4"/>
      </g>
     </g>
     <g id="text_15">
      <!-- 0.8 -->
      <g style="fill: #262626" transform="translate(21.312344 33.758253) scale(0.05 -0.05)">
       <defs>
        <path id="ArialMT-38" d="M 1131 2484 
Q 781 2613 612 2850 
Q 444 3088 444 3419 
Q 444 3919 803 4259 
Q 1163 4600 1759 4600 
Q 2359 4600 2725 4251 
Q 3091 3903 3091 3403 
Q 3091 3084 2923 2848 
Q 2756 2613 2416 2484 
Q 2838 2347 3058 2040 
Q 3278 1734 3278 1309 
Q 3278 722 2862 322 
Q 2447 -78 1769 -78 
Q 1091 -78 675 323 
Q 259 725 259 1325 
Q 259 1772 486 2073 
Q 713 2375 1131 2484 
z
M 1019 3438 
Q 1019 3113 1228 2906 
Q 1438 2700 1772 2700 
Q 2097 2700 2305 2904 
Q 2513 3109 2513 3406 
Q 2513 3716 2298 3927 
Q 2084 4138 1766 4138 
Q 1444 4138 1231 3931 
Q 1019 3725 1019 3438 
z
M 838 1322 
Q 838 1081 952 856 
Q 1066 631 1291 507 
Q 1516 384 1775 384 
Q 2178 384 2440 643 
Q 2703 903 2703 1303 
Q 2703 1709 2433 1975 
Q 2163 2241 1756 2241 
Q 1359 2241 1098 1978 
Q 838 1716 838 1322 
z
" transform="scale(0.015625)"/>
       </defs>
       <use xlink:href="#ArialMT-30"/>
       <use xlink:href="#ArialMT-2e" x="55.615234"/>
       <use xlink:href="#ArialMT-38" x="83.398438"/>
      </g>
     </g>
    </g>
    <g id="ytick_6">
     <g id="line2d_15">
      <g>
       <use xlink:href="#mb63a6c1959" x="30.262344" y="17" style="fill: #262626; stroke: #262626; stroke-width: 0.4"/>
      </g>
     </g>
     <g id="text_16">
      <!-- 1.0 -->
      <g style="fill: #262626" transform="translate(21.312344 18.789453) scale(0.05 -0.05)">
       <use xlink:href="#ArialMT-31"/>
       <use xlink:href="#ArialMT-2e" x="55.615234"/>
       <use xlink:href="#ArialMT-30" x="83.398438"/>
      </g>
     </g>
    </g>
    <g id="text_17">
     <!-- Phase Median/ Synchronicity/ Age Median/ -->
     <g style="fill: #262626" transform="translate(10.839844 101.946609) rotate(-90) scale(0.05 -0.05)">
      <defs>
       <path id="ArialMT-50" d="M 494 0 
L 494 4581 
L 2222 4581 
Q 2678 4581 2919 4538 
Q 3256 4481 3484 4323 
Q 3713 4166 3852 3881 
Q 3991 3597 3991 3256 
Q 3991 2672 3619 2267 
Q 3247 1863 2275 1863 
L 1100 1863 
L 1100 0 
L 494 0 
z
M 1100 2403 
L 2284 2403 
Q 2872 2403 3119 2622 
Q 3366 2841 3366 3238 
Q 3366 3525 3220 3729 
Q 3075 3934 2838 4000 
Q 2684 4041 2272 4041 
L 1100 4041 
L 1100 2403 
z
" transform="scale(0.015625)"/>
       <path id="ArialMT-68" d="M 422 0 
L 422 4581 
L 984 4581 
L 984 2938 
Q 1378 3394 1978 3394 
Q 2347 3394 2619 3248 
Q 2891 3103 3008 2847 
Q 3125 2591 3125 2103 
L 3125 0 
L 2563 0 
L 2563 2103 
Q 2563 2525 2380 2717 
Q 2197 2909 1863 2909 
Q 1613 2909 1392 2779 
Q 1172 2650 1078 2428 
Q 984 2206 984 1816 
L 984 0 
L 422 0 
z
" transform="scale(0.015625)"/>
       <path id="ArialMT-4d" d="M 475 0 
L 475 4581 
L 1388 4581 
L 2472 1338 
Q 2622 884 2691 659 
Q 2769 909 2934 1394 
L 4031 4581 
L 4847 4581 
L 4847 0 
L 4263 0 
L 4263 3834 
L 2931 0 
L 2384 0 
L 1059 3900 
L 1059 0 
L 475 0 
z
" transform="scale(0.015625)"/>
       <path id="ArialMT-64" d="M 2575 0 
L 2575 419 
Q 2259 -75 1647 -75 
Q 1250 -75 917 144 
Q 584 363 401 755 
Q 219 1147 219 1656 
Q 219 2153 384 2558 
Q 550 2963 881 3178 
Q 1213 3394 1622 3394 
Q 1922 3394 2156 3267 
Q 2391 3141 2538 2938 
L 2538 4581 
L 3097 4581 
L 3097 0 
L 2575 0 
z
M 797 1656 
Q 797 1019 1065 703 
Q 1334 388 1700 388 
Q 2069 388 2326 689 
Q 2584 991 2584 1609 
Q 2584 2291 2321 2609 
Q 2059 2928 1675 2928 
Q 1300 2928 1048 2622 
Q 797 2316 797 1656 
z
" transform="scale(0.015625)"/>
       <path id="ArialMT-2f" d="M 0 -78 
L 1328 4659 
L 1778 4659 
L 453 -78 
L 0 -78 
z
" transform="scale(0.015625)"/>
       <path id="ArialMT-53" d="M 288 1472 
L 859 1522 
Q 900 1178 1048 958 
Q 1197 738 1509 602 
Q 1822 466 2213 466 
Q 2559 466 2825 569 
Q 3091 672 3220 851 
Q 3350 1031 3350 1244 
Q 3350 1459 3225 1620 
Q 3100 1781 2813 1891 
Q 2628 1963 1997 2114 
Q 1366 2266 1113 2400 
Q 784 2572 623 2826 
Q 463 3081 463 3397 
Q 463 3744 659 4045 
Q 856 4347 1234 4503 
Q 1613 4659 2075 4659 
Q 2584 4659 2973 4495 
Q 3363 4331 3572 4012 
Q 3781 3694 3797 3291 
L 3216 3247 
Q 3169 3681 2898 3903 
Q 2628 4125 2100 4125 
Q 1550 4125 1298 3923 
Q 1047 3722 1047 3438 
Q 1047 3191 1225 3031 
Q 1400 2872 2139 2705 
Q 2878 2538 3153 2413 
Q 3553 2228 3743 1945 
Q 3934 1663 3934 1294 
Q 3934 928 3725 604 
Q 3516 281 3123 101 
Q 2731 -78 2241 -78 
Q 1619 -78 1198 103 
Q 778 284 539 648 
Q 300 1013 288 1472 
z
" transform="scale(0.015625)"/>
       <path id="ArialMT-79" d="M 397 -1278 
L 334 -750 
Q 519 -800 656 -800 
Q 844 -800 956 -737 
Q 1069 -675 1141 -563 
Q 1194 -478 1313 -144 
Q 1328 -97 1363 -6 
L 103 3319 
L 709 3319 
L 1400 1397 
Q 1534 1031 1641 628 
Q 1738 1016 1872 1384 
L 2581 3319 
L 3144 3319 
L 1881 -56 
Q 1678 -603 1566 -809 
Q 1416 -1088 1222 -1217 
Q 1028 -1347 759 -1347 
Q 597 -1347 397 -1278 
z
" transform="scale(0.015625)"/>
       <path id="ArialMT-41" d="M -9 0 
L 1750 4581 
L 2403 4581 
L 4278 0 
L 3588 0 
L 3053 1388 
L 1138 1388 
L 634 0 
L -9 0 
z
M 1313 1881 
L 2866 1881 
L 2388 3150 
Q 2169 3728 2063 4100 
Q 1975 3659 1816 3225 
L 1313 1881 
z
" transform="scale(0.015625)"/>
       <path id="ArialMT-67" d="M 319 -275 
L 866 -356 
Q 900 -609 1056 -725 
Q 1266 -881 1628 -881 
Q 2019 -881 2231 -725 
Q 2444 -569 2519 -288 
Q 2563 -116 2559 434 
Q 2191 0 1641 0 
Q 956 0 581 494 
Q 206 988 206 1678 
Q 206 2153 378 2554 
Q 550 2956 876 3175 
Q 1203 3394 1644 3394 
Q 2231 3394 2613 2919 
L 2613 3319 
L 3131 3319 
L 3131 450 
Q 3131 -325 2973 -648 
Q 2816 -972 2473 -1159 
Q 2131 -1347 1631 -1347 
Q 1038 -1347 672 -1080 
Q 306 -813 319 -275 
z
M 784 1719 
Q 784 1066 1043 766 
Q 1303 466 1694 466 
Q 2081 466 2343 764 
Q 2606 1063 2606 1700 
Q 2606 2309 2336 2618 
Q 2066 2928 1684 2928 
Q 1309 2928 1046 2623 
Q 784 2319 784 1719 
z
" transform="scale(0.015625)"/>
      </defs>
      <use xlink:href="#ArialMT-50"/>
      <use xlink:href="#ArialMT-68" x="66.699219"/>
      <use xlink:href="#ArialMT-61" x="122.314453"/>
      <use xlink:href="#ArialMT-73" x="177.929688"/>
      <use xlink:href="#ArialMT-65" x="227.929688"/>
      <use xlink:href="#ArialMT-20" x="283.544922"/>
      <use xlink:href="#ArialMT-4d" x="311.328125"/>
      <use xlink:href="#ArialMT-65" x="394.628906"/>
      <use xlink:href="#ArialMT-64" x="450.244141"/>
      <use xlink:href="#ArialMT-69" x="505.859375"/>
      <use xlink:href="#ArialMT-61" x="528.076172"/>
      <use xlink:href="#ArialMT-6e" x="583.691406"/>
      <use xlink:href="#ArialMT-2f" x="639.306641"/>
      <use xlink:href="#ArialMT-20" x="667.089844"/>
      <use xlink:href="#ArialMT-53" x="694.873047"/>
      <use xlink:href="#ArialMT-79" x="761.572266"/>
      <use xlink:href="#ArialMT-6e" x="811.572266"/>
      <use xlink:href="#ArialMT-63" x="867.1875"/>
      <use xlink:href="#ArialMT-68" x="917.1875"/>
      <use xlink:href="#ArialMT-72" x="972.802734"/>
      <use xlink:href="#ArialMT-6f" x="1006.103516"/>
      <use xlink:href="#ArialMT-6e" x="1061.71875"/>
      <use xlink:href="#ArialMT-69" x="1117.333984"/>
      <use xlink:href="#ArialMT-63" x="1139.550781"/>
      <use xlink:href="#ArialMT-69" x="1189.550781"/>
      <use xlink:href="#ArialMT-74" x="1211.767578"/>
      <use xlink:href="#ArialMT-79" x="1239.550781"/>
      <use xlink:href="#ArialMT-2f" x="1289.550781"/>
      <use xlink:href="#ArialMT-20" x="1317.333984"/>
      <use xlink:href="#ArialMT-41" x="1339.617188"/>
      <use xlink:href="#ArialMT-67" x="1406.316406"/>
      <use xlink:href="#ArialMT-65" x="1461.931641"/>
      <use xlink:href="#ArialMT-20" x="1517.546875"/>
      <use xlink:href="#ArialMT-4d" x="1545.330078"/>
      <use xlink:href="#ArialMT-65" x="1628.630859"/>
      <use xlink:href="#ArialMT-64" x="1684.246094"/>
      <use xlink:href="#ArialMT-69" x="1739.861328"/>
      <use xlink:href="#ArialMT-61" x="1762.078125"/>
      <use xlink:href="#ArialMT-6e" x="1817.693359"/>
      <use xlink:href="#ArialMT-2f" x="1873.308594"/>
     </g>
     <!-- R² Median (Min-Max Normalized) -->
     <g style="fill: #262626" transform="translate(16.26 91.232547) rotate(-90) scale(0.05 -0.05)">
      <defs>
       <path id="ArialMT-52" d="M 503 0 
L 503 4581 
L 2534 4581 
Q 3147 4581 3465 4457 
Q 3784 4334 3975 4021 
Q 4166 3709 4166 3331 
Q 4166 2844 3850 2509 
Q 3534 2175 2875 2084 
Q 3116 1969 3241 1856 
Q 3506 1613 3744 1247 
L 4541 0 
L 3778 0 
L 3172 953 
Q 2906 1366 2734 1584 
Q 2563 1803 2427 1890 
Q 2291 1978 2150 2013 
Q 2047 2034 1813 2034 
L 1109 2034 
L 1109 0 
L 503 0 
z
M 1109 2559 
L 2413 2559 
Q 2828 2559 3062 2645 
Q 3297 2731 3419 2920 
Q 3541 3109 3541 3331 
Q 3541 3656 3305 3865 
Q 3069 4075 2559 4075 
L 1109 4075 
L 1109 2559 
z
" transform="scale(0.015625)"/>
       <path id="ArialMT-b2" d="M 78 2291 
Q 97 2469 225 2647 
Q 422 2916 872 3242 
Q 1322 3569 1406 3663 
Q 1522 3791 1522 3925 
Q 1522 4075 1412 4172 
Q 1303 4269 1091 4269 
Q 884 4269 782 4195 
Q 681 4122 616 3913 
L 144 3963 
Q 234 4309 457 4473 
Q 681 4638 1100 4638 
Q 1572 4638 1792 4453 
Q 2013 4269 2013 4003 
Q 2013 3741 1828 3506 
Q 1688 3331 1188 2972 
Q 928 2781 819 2669 
L 2025 2669 
L 2025 2291 
L 78 2291 
z
" transform="scale(0.015625)"/>
       <path id="ArialMT-28" d="M 1497 -1347 
Q 1031 -759 709 28 
Q 388 816 388 1659 
Q 388 2403 628 3084 
Q 909 3875 1497 4659 
L 1900 4659 
Q 1522 4009 1400 3731 
Q 1209 3300 1100 2831 
Q 966 2247 966 1656 
Q 966 153 1900 -1347 
L 1497 -1347 
z
" transform="scale(0.015625)"/>
       <path id="ArialMT-2d" d="M 203 1375 
L 203 1941 
L 1931 1941 
L 1931 1375 
L 203 1375 
z
" transform="scale(0.015625)"/>
       <path id="ArialMT-78" d="M 47 0 
L 1259 1725 
L 138 3319 
L 841 3319 
L 1350 2541 
Q 1494 2319 1581 2169 
Q 1719 2375 1834 2534 
L 2394 3319 
L 3066 3319 
L 1919 1756 
L 3153 0 
L 2463 0 
L 1781 1031 
L 1600 1309 
L 728 0 
L 47 0 
z
" transform="scale(0.015625)"/>
       <path id="ArialMT-4e" d="M 488 0 
L 488 4581 
L 1109 4581 
L 3516 984 
L 3516 4581 
L 4097 4581 
L 4097 0 
L 3475 0 
L 1069 3600 
L 1069 0 
L 488 0 
z
" transform="scale(0.015625)"/>
       <path id="ArialMT-6c" d="M 409 0 
L 409 4581 
L 972 4581 
L 972 0 
L 409 0 
z
" transform="scale(0.015625)"/>
       <path id="ArialMT-7a" d="M 125 0 
L 125 456 
L 2238 2881 
Q 1878 2863 1603 2863 
L 250 2863 
L 250 3319 
L 2963 3319 
L 2963 2947 
L 1166 841 
L 819 456 
Q 1197 484 1528 484 
L 3063 484 
L 3063 0 
L 125 0 
z
" transform="scale(0.015625)"/>
       <path id="ArialMT-29" d="M 791 -1347 
L 388 -1347 
Q 1322 153 1322 1656 
Q 1322 2244 1188 2822 
Q 1081 3291 891 3722 
Q 769 4003 388 4659 
L 791 4659 
Q 1378 3875 1659 3084 
Q 1900 2403 1900 1659 
Q 1900 816 1576 28 
Q 1253 -759 791 -1347 
z
" transform="scale(0.015625)"/>
      </defs>
      <use xlink:href="#ArialMT-52"/>
      <use xlink:href="#ArialMT-b2" x="72.216797"/>
      <use xlink:href="#ArialMT-20" x="105.517578"/>
      <use xlink:href="#ArialMT-4d" x="133.300781"/>
      <use xlink:href="#ArialMT-65" x="216.601562"/>
      <use xlink:href="#ArialMT-64" x="272.216797"/>
      <use xlink:href="#ArialMT-69" x="327.832031"/>
      <use xlink:href="#ArialMT-61" x="350.048828"/>
      <use xlink:href="#ArialMT-6e" x="405.664062"/>
      <use xlink:href="#ArialMT-20" x="461.279297"/>
      <use xlink:href="#ArialMT-28" x="489.0625"/>
      <use xlink:href="#ArialMT-4d" x="522.363281"/>
      <use xlink:href="#ArialMT-69" x="605.664062"/>
      <use xlink:href="#ArialMT-6e" x="627.880859"/>
      <use xlink:href="#ArialMT-2d" x="683.496094"/>
      <use xlink:href="#ArialMT-4d" x="716.796875"/>
      <use xlink:href="#ArialMT-61" x="800.097656"/>
      <use xlink:href="#ArialMT-78" x="855.712891"/>
      <use xlink:href="#ArialMT-20" x="905.712891"/>
      <use xlink:href="#ArialMT-4e" x="933.496094"/>
      <use xlink:href="#ArialMT-6f" x="1005.712891"/>
      <use xlink:href="#ArialMT-72" x="1061.328125"/>
      <use xlink:href="#ArialMT-6d" x="1094.628906"/>
      <use xlink:href="#ArialMT-61" x="1177.929688"/>
      <use xlink:href="#ArialMT-6c" x="1233.544922"/>
      <use xlink:href="#ArialMT-69" x="1255.761719"/>
      <use xlink:href="#ArialMT-7a" x="1277.978516"/>
      <use xlink:href="#ArialMT-65" x="1327.978516"/>
      <use xlink:href="#ArialMT-64" x="1383.59375"/>
      <use xlink:href="#ArialMT-29" x="1439.208984"/>
     </g>
    </g>
   </g>
   <g id="line2d_16">
    <path d="M 30.262344 46.217164 
L 34.066889 42.197422 
L 37.871435 24.939903 
L 41.67598 18.773609 
L 45.480526 19.709006 
L 49.285071 20.008583 
L 53.089616 17.401575 
L 56.894162 17 
L 60.698707 17.820635 
L 64.503253 19.514401 
L 68.307798 21.762959 
L 72.112344 24.147463 
L 75.916889 27.253322 
L 79.721435 31.775265 
L 83.52598 35.537613 
L 87.330526 39.533312 
L 91.135071 42.84189 
L 94.939616 46.479623 
L 98.744162 48.294076 
L 102.548707 50.366183 
L 106.353253 51.785091 
L 110.157798 54.056182 
L 113.962344 55.080317 
L 117.766889 56.246644 
L 121.571435 57.405773 
L 125.37598 58.054782 
L 129.180526 57.708887 
L 132.985071 56.972556 
L 136.789616 57.975117 
L 140.594162 58.629076 
L 144.398707 60.280458 
L 148.203253 62.785615 
L 152.007798 66.77528 
L 155.812344 70.271227 
L 159.616889 73.85646 
L 163.421435 76.482576 
L 167.22598 77.649032 
L 171.030526 78.71208 
L 174.835071 80.272939 
L 178.639616 82.592277 
L 182.444162 85.259207 
L 186.248707 86.820774 
L 190.053253 91.844 
L 193.857798 90.37523 
L 197.662344 81.677672 
" clip-path="url(#p93ccee8b7b)" style="fill: none; stroke: #0173b2; stroke-width: 1.5; stroke-linecap: round"/>
   </g>
   <g id="line2d_17">
    <path d="M 30.262344 17 
L 34.066889 25.045428 
L 37.871435 27.038118 
L 41.67598 25.966694 
L 45.480526 27.674563 
L 49.285071 30.07864 
L 53.089616 31.679032 
L 56.894162 31.299933 
L 60.698707 32.696121 
L 64.503253 36.401466 
L 68.307798 39.360558 
L 72.112344 43.254526 
L 75.916889 48.432451 
L 79.721435 54.650536 
L 83.52598 61.419625 
L 87.330526 67.141336 
L 91.135071 70.361643 
L 94.939616 72.779326 
L 98.744162 75.0542 
L 102.548707 77.199375 
L 106.353253 79.752143 
L 110.157798 82.09983 
L 113.962344 83.166031 
L 117.766889 84.914656 
L 121.571435 86.69356 
L 125.37598 87.145824 
L 129.180526 89.190185 
L 132.985071 90.187404 
L 136.789616 91.344154 
L 140.594162 91.844 
L 144.398707 91.694458 
L 148.203253 91.53191 
L 152.007798 90.502877 
L 155.812344 87.037768 
L 159.616889 84.654989 
L 163.421435 83.268889 
L 167.22598 84.377139 
L 171.030526 84.245032 
L 174.835071 86.318723 
L 178.639616 82.167132 
L 182.444162 79.549552 
L 186.248707 80.660865 
L 190.053253 79.994134 
L 193.857798 68.60269 
L 197.662344 46.298919 
" clip-path="url(#p93ccee8b7b)" style="fill: none; stroke-dasharray: 1.5,2.475; stroke-dashoffset: 0; stroke: #de8f05; stroke-width: 1.5"/>
   </g>
   <g id="line2d_18">
    <path d="M 30.262344 17 
L 34.066889 19.99376 
L 37.871435 25.98128 
L 41.67598 31.9688 
L 45.480526 25.98128 
L 49.285071 25.98128 
L 53.089616 31.9688 
L 56.894162 25.98128 
L 60.698707 25.98128 
L 64.503253 25.98128 
L 68.307798 28.97504 
L 72.112344 31.9688 
L 75.916889 37.95632 
L 79.721435 43.94384 
L 83.52598 49.93136 
L 87.330526 55.91888 
L 91.135071 67.89392 
L 94.939616 67.89392 
L 98.744162 73.88144 
L 102.548707 79.86896 
L 106.353253 79.86896 
L 110.157798 85.85648 
L 113.962344 85.85648 
L 117.766889 85.85648 
L 121.571435 85.85648 
L 125.37598 85.85648 
L 129.180526 85.85648 
L 132.985071 91.844 
L 136.789616 91.844 
L 140.594162 91.844 
L 144.398707 91.844 
L 148.203253 91.844 
L 152.007798 88.85024 
L 155.812344 85.85648 
L 159.616889 79.86896 
L 163.421435 79.86896 
L 167.22598 73.88144 
L 171.030526 70.88768 
L 174.835071 67.89392 
L 178.639616 67.89392 
L 182.444162 64.90016 
L 186.248707 61.9064 
L 190.053253 61.9064 
L 193.857798 55.91888 
L 197.662344 49.93136 
" clip-path="url(#p93ccee8b7b)" style="fill: none; stroke-dasharray: 5.55,2.4; stroke-dashoffset: 0; stroke: #029e73; stroke-width: 1.5"/>
   </g>
   <g id="line2d_19">
    <path d="M 30.262344 38.715022 
L 34.066889 34.474568 
L 37.871435 25.138247 
L 41.67598 18.30855 
L 45.480526 17.596497 
L 49.285071 18.779407 
L 53.089616 18.841745 
L 56.894162 17 
L 60.698707 18.284509 
L 64.503253 21.309751 
L 68.307798 26.098661 
L 72.112344 32.879525 
L 75.916889 40.587067 
L 79.721435 51.089246 
L 83.52598 61.31498 
L 87.330526 69.968137 
L 91.135071 75.118881 
L 94.939616 77.799639 
L 98.744162 80.197508 
L 102.548707 82.630657 
L 106.353253 84.813881 
L 110.157798 86.192094 
L 113.962344 87.55594 
L 117.766889 88.564334 
L 121.571435 89.003116 
L 125.37598 89.535328 
L 129.180526 90.388514 
L 132.985071 90.802075 
L 136.789616 91.289849 
L 140.594162 91.727715 
L 144.398707 91.844 
L 148.203253 91.71553 
L 152.007798 91.122164 
L 155.812344 89.847588 
L 159.616889 89.609583 
L 163.421435 89.331985 
L 167.22598 88.802039 
L 171.030526 89.054156 
L 174.835071 89.081609 
L 178.639616 88.828278 
L 182.444162 89.706926 
L 186.248707 90.375199 
L 190.053253 91.189883 
L 193.857798 89.458289 
L 197.662344 83.309826 
" clip-path="url(#p93ccee8b7b)" style="fill: none; stroke-dasharray: 9.6,2.4,1.5,2.4; stroke-dashoffset: 0; stroke: #d55e00; stroke-width: 1.5"/>
   </g>
   <g id="patch_3">
    <path d="M 28.359691 91.844 
L 28.359691 17 
L 33.982428 17 
L 33.982428 91.844 
z
" clip-path="url(#p93ccee8b7b)" style="fill: #ffffff; opacity: 0.75"/>
   </g>
   <g id="patch_4">
    <path d="M 33.982428 91.844 
L 33.982428 17 
L 37.702513 17 
L 37.702513 91.844 
z
" clip-path="url(#p93ccee8b7b)" style="fill: #ffffff; opacity: 0.735"/>
   </g>
   <g id="patch_5">
    <path d="M 37.702513 91.844 
L 37.702513 17 
L 41.422217 17 
L 41.422217 91.844 
z
" clip-path="url(#p93ccee8b7b)" style="fill: #ffffff; opacity: 0.72"/>
   </g>
   <g id="patch_6">
    <path d="M 41.422217 91.844 
L 41.422217 17 
L 45.142301 17 
L 45.142301 91.844 
z
" clip-path="url(#p93ccee8b7b)" style="fill: #ffffff; opacity: 0.675"/>
   </g>
   <g id="patch_7">
    <path d="M 45.142301 91.844 
L 45.142301 17 
L 48.862386 17 
L 48.862386 91.844 
z
" clip-path="url(#p93ccee8b7b)" style="fill: #ffffff; opacity: 0.6225"/>
   </g>
   <g id="patch_8">
    <path d="M 48.862386 91.844 
L 48.862386 17 
L 52.582471 17 
L 52.582471 91.844 
z
" clip-path="url(#p93ccee8b7b)" style="fill: #ffffff; opacity: 0.525"/>
   </g>
   <g id="patch_9">
    <path d="M 52.582471 91.844 
L 52.582471 17 
L 56.302175 17 
L 56.302175 91.844 
z
" clip-path="url(#p93ccee8b7b)" style="fill: #ffffff; opacity: 0.375"/>
   </g>
   <g id="patch_10">
    <path d="M 56.302175 91.844 
L 56.302175 17 
L 60.022259 17 
L 60.022259 91.844 
z
" clip-path="url(#p93ccee8b7b)" style="fill: #ffffff; opacity: 0.27"/>
   </g>
   <g id="patch_11">
    <path d="M 60.022259 91.844 
L 60.022259 17 
L 63.742344 17 
L 63.742344 91.844 
z
" clip-path="url(#p93ccee8b7b)" style="fill: #ffffff; opacity: 0.15"/>
   </g>
   <g id="patch_12">
    <path d="M 63.742344 91.844 
L 63.742344 17 
L 67.462428 17 
L 67.462428 91.844 
z
" clip-path="url(#p93ccee8b7b)" style="fill: #ffffff; opacity: 0.0975"/>
   </g>
   <g id="patch_13">
    <path d="M 67.462428 91.844 
L 67.462428 17 
L 71.182513 17 
L 71.182513 91.844 
z
" clip-path="url(#p93ccee8b7b)" style="fill: #ffffff; opacity: 0.03"/>
   </g>
   <g id="patch_14">
    <path d="M 71.182513 91.844 
L 71.182513 17 
L 74.902217 17 
L 74.902217 91.844 
z
" clip-path="url(#p93ccee8b7b)" style="fill: #ffffff; opacity: 0.0375"/>
   </g>
   <g id="patch_15">
    <path d="M 74.902217 91.844 
L 74.902217 17 
L 78.622301 17 
L 78.622301 91.844 
z
" clip-path="url(#p93ccee8b7b)" style="fill: #ffffff; opacity: 0.0825"/>
   </g>
   <g id="patch_16">
    <path d="M 78.622301 91.844 
L 78.622301 17 
L 82.342386 17 
L 82.342386 91.844 
z
" clip-path="url(#p93ccee8b7b)" style="fill: #ffffff; opacity: 0.0975"/>
   </g>
   <g id="patch_17">
    <path d="M 82.342386 91.844 
L 82.342386 17 
L 86.062471 17 
L 86.062471 91.844 
z
" clip-path="url(#p93ccee8b7b)" style="fill: #ffffff; opacity: 0.0825"/>
   </g>
   <g id="patch_18">
    <path d="M 86.062471 91.844 
L 86.062471 17 
L 89.782175 17 
L 89.782175 91.844 
z
" clip-path="url(#p93ccee8b7b)" style="fill: #ffffff; opacity: 0.06"/>
   </g>
   <g id="patch_19">
    <path d="M 89.782175 91.844 
L 89.782175 17 
L 93.502259 17 
L 93.502259 91.844 
z
" clip-path="url(#p93ccee8b7b)" style="fill: #ffffff; opacity: 0.0375"/>
   </g>
   <g id="patch_20">
    <path d="M 93.502259 91.844 
L 93.502259 17 
L 97.222344 17 
L 97.222344 91.844 
L 93.502259 91.844 
z
" clip-path="url(#p93ccee8b7b)" style="fill: none; opacity: 0"/>
   </g>
   <g id="patch_21">
    <path d="M 97.222344 91.844 
L 97.222344 17 
L 100.942428 17 
L 100.942428 91.844 
z
" clip-path="url(#p93ccee8b7b)" style="fill: #ffffff; opacity: 0.0075"/>
   </g>
   <g id="patch_22">
    <path d="M 100.942428 91.844 
L 100.942428 17 
L 104.662513 17 
L 104.662513 91.844 
z
" clip-path="url(#p93ccee8b7b)" style="fill: #ffffff; opacity: 0.03"/>
   </g>
   <g id="patch_23">
    <path d="M 104.662513 91.844 
L 104.662513 17 
L 108.382217 17 
L 108.382217 91.844 
z
" clip-path="url(#p93ccee8b7b)" style="fill: #ffffff; opacity: 0.045"/>
   </g>
   <g id="patch_24">
    <path d="M 108.382217 91.844 
L 108.382217 17 
L 112.102301 17 
L 112.102301 91.844 
z
" clip-path="url(#p93ccee8b7b)" style="fill: #ffffff; opacity: 0.06"/>
   </g>
   <g id="patch_25">
    <path d="M 112.102301 91.844 
L 112.102301 17 
L 115.822386 17 
L 115.822386 91.844 
z
" clip-path="url(#p93ccee8b7b)" style="fill: #ffffff; opacity: 0.0675"/>
   </g>
   <g id="patch_26">
    <path d="M 115.822386 91.844 
L 115.822386 17 
L 119.542471 17 
L 119.542471 91.844 
z
" clip-path="url(#p93ccee8b7b)" style="fill: #ffffff; opacity: 0.1425"/>
   </g>
   <g id="patch_27">
    <path d="M 119.542471 91.844 
L 119.542471 17 
L 123.262175 17 
L 123.262175 91.844 
z
" clip-path="url(#p93ccee8b7b)" style="fill: #ffffff; opacity: 0.2625"/>
   </g>
   <g id="patch_28">
    <path d="M 123.262175 91.844 
L 123.262175 17 
L 126.982259 17 
L 126.982259 91.844 
z
" clip-path="url(#p93ccee8b7b)" style="fill: #ffffff; opacity: 0.3375"/>
   </g>
   <g id="patch_29">
    <path d="M 126.982259 91.844 
L 126.982259 17 
L 130.702344 17 
L 130.702344 91.844 
z
" clip-path="url(#p93ccee8b7b)" style="fill: #ffffff; opacity: 0.2775"/>
   </g>
   <g id="patch_30">
    <path d="M 130.702344 91.844 
L 130.702344 17 
L 134.422428 17 
L 134.422428 91.844 
z
" clip-path="url(#p93ccee8b7b)" style="fill: #ffffff; opacity: 0.21"/>
   </g>
   <g id="patch_31">
    <path d="M 134.422428 91.844 
L 134.422428 17 
L 138.142513 17 
L 138.142513 91.844 
z
" clip-path="url(#p93ccee8b7b)" style="fill: #ffffff; opacity: 0.2175"/>
   </g>
   <g id="patch_32">
    <path d="M 138.142513 91.844 
L 138.142513 17 
L 141.862217 17 
L 141.862217 91.844 
z
" clip-path="url(#p93ccee8b7b)" style="fill: #ffffff; opacity: 0.27"/>
   </g>
   <g id="patch_33">
    <path d="M 141.862217 91.844 
L 141.862217 17 
L 145.582301 17 
L 145.582301 91.844 
z
" clip-path="url(#p93ccee8b7b)" style="fill: #ffffff; opacity: 0.3375"/>
   </g>
   <g id="patch_34">
    <path d="M 145.582301 91.844 
L 145.582301 17 
L 149.302386 17 
L 149.302386 91.844 
z
" clip-path="url(#p93ccee8b7b)" style="fill: #ffffff; opacity: 0.3975"/>
   </g>
   <g id="patch_35">
    <path d="M 149.302386 91.844 
L 149.302386 17 
L 153.022471 17 
L 153.022471 91.844 
z
" clip-path="url(#p93ccee8b7b)" style="fill: #ffffff; opacity: 0.465"/>
   </g>
   <g id="patch_36">
    <path d="M 153.022471 91.844 
L 153.022471 17 
L 156.742175 17 
L 156.742175 91.844 
z
" clip-path="url(#p93ccee8b7b)" style="fill: #ffffff; opacity: 0.525"/>
   </g>
   <g id="patch_37">
    <path d="M 156.742175 91.844 
L 156.742175 17 
L 160.462259 17 
L 160.462259 91.844 
z
" clip-path="url(#p93ccee8b7b)" style="fill: #ffffff; opacity: 0.57"/>
   </g>
   <g id="patch_38">
    <path d="M 160.462259 91.844 
L 160.462259 17 
L 164.182344 17 
L 164.182344 91.844 
z
" clip-path="url(#p93ccee8b7b)" style="fill: #ffffff; opacity: 0.6"/>
   </g>
   <g id="patch_39">
    <path d="M 164.182344 91.844 
L 164.182344 17 
L 167.902428 17 
L 167.902428 91.844 
z
" clip-path="url(#p93ccee8b7b)" style="fill: #ffffff; opacity: 0.63"/>
   </g>
   <g id="patch_40">
    <path d="M 167.902428 91.844 
L 167.902428 17 
L 171.622513 17 
L 171.622513 91.844 
z
" clip-path="url(#p93ccee8b7b)" style="fill: #ffffff; opacity: 0.6525"/>
   </g>
   <g id="patch_41">
    <path d="M 171.622513 91.844 
L 171.622513 17 
L 175.342217 17 
L 175.342217 91.844 
z
" clip-path="url(#p93ccee8b7b)" style="fill: #ffffff; opacity: 0.675"/>
   </g>
   <g id="patch_42">
    <path d="M 175.342217 91.844 
L 175.342217 17 
L 179.062301 17 
L 179.062301 91.844 
z
" clip-path="url(#p93ccee8b7b)" style="fill: #ffffff; opacity: 0.69"/>
   </g>
   <g id="patch_43">
    <path d="M 179.062301 91.844 
L 179.062301 17 
L 182.782386 17 
L 182.782386 91.844 
z
" clip-path="url(#p93ccee8b7b)" style="fill: #ffffff; opacity: 0.6975"/>
   </g>
   <g id="patch_44">
    <path d="M 182.782386 91.844 
L 182.782386 17 
L 186.502471 17 
L 186.502471 91.844 
z
" clip-path="url(#p93ccee8b7b)" style="fill: #ffffff; opacity: 0.705"/>
   </g>
   <g id="patch_45">
    <path d="M 186.502471 91.844 
L 186.502471 17 
L 190.222175 17 
L 190.222175 91.844 
z
" clip-path="url(#p93ccee8b7b)" style="fill: #ffffff; opacity: 0.7125"/>
   </g>
   <g id="patch_46">
    <path d="M 190.222175 91.844 
L 190.222175 17 
L 193.942259 17 
L 193.942259 91.844 
z
" clip-path="url(#p93ccee8b7b)" style="fill: #ffffff; opacity: 0.72"/>
   </g>
   <g id="patch_47">
    <path d="M 193.942259 91.844 
L 193.942259 17 
L 201.466889 17 
L 201.466889 91.844 
z
" clip-path="url(#p93ccee8b7b)" style="fill: #ffffff; opacity: 0.7425"/>
   </g>
   <g id="patch_48">
    <path d="M 30.262344 91.844 
L 30.262344 17 
" style="fill: none; stroke: #262626; stroke-width: 0.8; stroke-linejoin: miter; stroke-linecap: square"/>
   </g>
   <g id="patch_49">
    <path d="M 30.262344 91.844 
L 197.662344 91.844 
" style="fill: none; stroke: #262626; stroke-width: 0.8; stroke-linejoin: miter; stroke-linecap: square"/>
   </g>
   <g id="text_18">
    <!-- Rhythm Parameters at distances to entrance -->
    <g style="fill: #262626" transform="translate(64.497891 11) scale(0.05 -0.05)">
     <use xlink:href="#ArialMT-52"/>
     <use xlink:href="#ArialMT-68" x="72.216797"/>
     <use xlink:href="#ArialMT-79" x="127.832031"/>
     <use xlink:href="#ArialMT-74" x="177.832031"/>
     <use xlink:href="#ArialMT-68" x="205.615234"/>
     <use xlink:href="#ArialMT-6d" x="261.230469"/>
     <use xlink:href="#ArialMT-20" x="344.53125"/>
     <use xlink:href="#ArialMT-50" x="372.314453"/>
     <use xlink:href="#ArialMT-61" x="439.013672"/>
     <use xlink:href="#ArialMT-72" x="494.628906"/>
     <use xlink:href="#ArialMT-61" x="527.929688"/>
     <use xlink:href="#ArialMT-6d" x="583.544922"/>
     <use xlink:href="#ArialMT-65" x="666.845703"/>
     <use xlink:href="#ArialMT-74" x="722.460938"/>
     <use xlink:href="#ArialMT-65" x="750.244141"/>
     <use xlink:href="#ArialMT-72" x="805.859375"/>
     <use xlink:href="#ArialMT-73" x="839.160156"/>
     <use xlink:href="#ArialMT-20" x="889.160156"/>
     <use xlink:href="#ArialMT-61" x="916.943359"/>
     <use xlink:href="#ArialMT-74" x="972.558594"/>
     <use xlink:href="#ArialMT-20" x="1000.341797"/>
     <use xlink:href="#ArialMT-64" x="1028.125"/>
     <use xlink:href="#ArialMT-69" x="1083.740234"/>
     <use xlink:href="#ArialMT-73" x="1105.957031"/>
     <use xlink:href="#ArialMT-74" x="1155.957031"/>
     <use xlink:href="#ArialMT-61" x="1183.740234"/>
     <use xlink:href="#ArialMT-6e" x="1239.355469"/>
     <use xlink:href="#ArialMT-63" x="1294.970703"/>
     <use xlink:href="#ArialMT-65" x="1344.970703"/>
     <use xlink:href="#ArialMT-73" x="1400.585938"/>
     <use xlink:href="#ArialMT-20" x="1450.585938"/>
     <use xlink:href="#ArialMT-74" x="1478.369141"/>
     <use xlink:href="#ArialMT-6f" x="1506.152344"/>
     <use xlink:href="#ArialMT-20" x="1561.767578"/>
     <use xlink:href="#ArialMT-65" x="1589.550781"/>
     <use xlink:href="#ArialMT-6e" x="1645.166016"/>
     <use xlink:href="#ArialMT-74" x="1700.78125"/>
     <use xlink:href="#ArialMT-72" x="1728.564453"/>
     <use xlink:href="#ArialMT-61" x="1761.865234"/>
     <use xlink:href="#ArialMT-6e" x="1817.480469"/>
     <use xlink:href="#ArialMT-63" x="1873.095703"/>
     <use xlink:href="#ArialMT-65" x="1923.095703"/>
    </g>
   </g>
   <g id="legend_1">
    <g id="line2d_20">
     <path d="M 147.199063 23.328906 
L 152.199063 23.328906 
L 157.199063 23.328906 
" style="fill: none; stroke: #0173b2; stroke-width: 1.5; stroke-linecap: round"/>
    </g>
    <g id="text_19">
     <!-- Phase Median -->
     <g style="fill: #262626" transform="translate(161.199063 25.078906) scale(0.05 -0.05)">
      <use xlink:href="#ArialMT-50"/>
      <use xlink:href="#ArialMT-68" x="66.699219"/>
      <use xlink:href="#ArialMT-61" x="122.314453"/>
      <use xlink:href="#ArialMT-73" x="177.929688"/>
      <use xlink:href="#ArialMT-65" x="227.929688"/>
      <use xlink:href="#ArialMT-20" x="283.544922"/>
      <use xlink:href="#ArialMT-4d" x="311.328125"/>
      <use xlink:href="#ArialMT-65" x="394.628906"/>
      <use xlink:href="#ArialMT-64" x="450.244141"/>
      <use xlink:href="#ArialMT-69" x="505.859375"/>
      <use xlink:href="#ArialMT-61" x="528.076172"/>
      <use xlink:href="#ArialMT-6e" x="583.691406"/>
     </g>
    </g>
    <g id="line2d_21">
     <path d="M 147.199063 30.4625 
L 152.199063 30.4625 
L 157.199063 30.4625 
" style="fill: none; stroke-dasharray: 1.5,2.475; stroke-dashoffset: 0; stroke: #de8f05; stroke-width: 1.5"/>
    </g>
    <g id="text_20">
     <!-- Synchronicity -->
     <g style="fill: #262626" transform="translate(161.199063 32.2125) scale(0.05 -0.05)">
      <use xlink:href="#ArialMT-53"/>
      <use xlink:href="#ArialMT-79" x="66.699219"/>
      <use xlink:href="#ArialMT-6e" x="116.699219"/>
      <use xlink:href="#ArialMT-63" x="172.314453"/>
      <use xlink:href="#ArialMT-68" x="222.314453"/>
      <use xlink:href="#ArialMT-72" x="277.929688"/>
      <use xlink:href="#ArialMT-6f" x="311.230469"/>
      <use xlink:href="#ArialMT-6e" x="366.845703"/>
      <use xlink:href="#ArialMT-69" x="422.460938"/>
      <use xlink:href="#ArialMT-63" x="444.677734"/>
      <use xlink:href="#ArialMT-69" x="494.677734"/>
      <use xlink:href="#ArialMT-74" x="516.894531"/>
      <use xlink:href="#ArialMT-79" x="544.677734"/>
     </g>
    </g>
    <g id="line2d_22">
     <path d="M 147.199063 37.59375 
L 152.199063 37.59375 
L 157.199063 37.59375 
" style="fill: none; stroke-dasharray: 5.55,2.4; stroke-dashoffset: 0; stroke: #029e73; stroke-width: 1.5"/>
    </g>
    <g id="text_21">
     <!-- Age Median -->
     <g style="fill: #262626" transform="translate(161.199063 39.34375) scale(0.05 -0.05)">
      <use xlink:href="#ArialMT-41"/>
      <use xlink:href="#ArialMT-67" x="66.699219"/>
      <use xlink:href="#ArialMT-65" x="122.314453"/>
      <use xlink:href="#ArialMT-20" x="177.929688"/>
      <use xlink:href="#ArialMT-4d" x="205.712891"/>
      <use xlink:href="#ArialMT-65" x="289.013672"/>
      <use xlink:href="#ArialMT-64" x="344.628906"/>
      <use xlink:href="#ArialMT-69" x="400.244141"/>
      <use xlink:href="#ArialMT-61" x="422.460938"/>
      <use xlink:href="#ArialMT-6e" x="478.076172"/>
     </g>
    </g>
    <g id="line2d_23">
     <path d="M 147.199063 44.725 
L 152.199063 44.725 
L 157.199063 44.725 
" style="fill: none; stroke-dasharray: 9.6,2.4,1.5,2.4; stroke-dashoffset: 0; stroke: #d55e00; stroke-width: 1.5"/>
    </g>
    <g id="text_22">
     <!-- R² Median -->
     <g style="fill: #262626" transform="translate(161.199063 46.475) scale(0.05 -0.05)">
      <use xlink:href="#ArialMT-52"/>
      <use xlink:href="#ArialMT-b2" x="72.216797"/>
      <use xlink:href="#ArialMT-20" x="105.517578"/>
      <use xlink:href="#ArialMT-4d" x="133.300781"/>
      <use xlink:href="#ArialMT-65" x="216.601562"/>
      <use xlink:href="#ArialMT-64" x="272.216797"/>
      <use xlink:href="#ArialMT-69" x="327.832031"/>
      <use xlink:href="#ArialMT-61" x="350.048828"/>
      <use xlink:href="#ArialMT-6e" x="405.664062"/>
     </g>
    </g>
   </g>
  </g>
  <g id="axes_2">
   <g id="patch_50">
    <path d="M 214.402344 91.844 
L 214.402344 91.844 
L 214.402344 17 
L 214.402344 17 
z
" style="fill: #ffffff"/>
   </g>
   <g id="matplotlib.axis_3">
    <g id="ytick_7">
     <g id="line2d_24">
      <g>
       <use xlink:href="#mb63a6c1959" x="214.402344" y="91.844" style="fill: #262626; stroke: #262626; stroke-width: 0.4"/>
      </g>
     </g>
     <g id="text_23">
      <!-- 14.2 -->
      <g style="fill: #262626" transform="translate(202.671875 93.633453) scale(0.05 -0.05)">
       <use xlink:href="#ArialMT-31"/>
       <use xlink:href="#ArialMT-34" x="55.615234"/>
       <use xlink:href="#ArialMT-2e" x="111.230469"/>
       <use xlink:href="#ArialMT-32" x="139.013672"/>
      </g>
     </g>
    </g>
    <g id="ytick_8">
     <g id="line2d_25">
      <g>
       <use xlink:href="#mb63a6c1959" x="214.402344" y="76.8752" style="fill: #262626; stroke: #262626; stroke-width: 0.4"/>
      </g>
     </g>
     <g id="text_24">
      <!-- 13.8 -->
      <g style="fill: #262626" transform="translate(202.671875 78.664653) scale(0.05 -0.05)">
       <use xlink:href="#ArialMT-31"/>
       <use xlink:href="#ArialMT-33" x="55.615234"/>
       <use xlink:href="#ArialMT-2e" x="111.230469"/>
       <use xlink:href="#ArialMT-38" x="139.013672"/>
      </g>
     </g>
    </g>
    <g id="ytick_9">
     <g id="line2d_26">
      <g>
       <use xlink:href="#mb63a6c1959" x="214.402344" y="61.9064" style="fill: #262626; stroke: #262626; stroke-width: 0.4"/>
      </g>
     </g>
     <g id="text_25">
      <!-- 13.4 -->
      <g style="fill: #262626" transform="translate(202.671875 63.695853) scale(0.05 -0.05)">
       <use xlink:href="#ArialMT-31"/>
       <use xlink:href="#ArialMT-33" x="55.615234"/>
       <use xlink:href="#ArialMT-2e" x="111.230469"/>
       <use xlink:href="#ArialMT-34" x="139.013672"/>
      </g>
     </g>
    </g>
    <g id="ytick_10">
     <g id="line2d_27">
      <g>
       <use xlink:href="#mb63a6c1959" x="214.402344" y="46.9376" style="fill: #262626; stroke: #262626; stroke-width: 0.4"/>
      </g>
     </g>
     <g id="text_26">
      <!-- 13.1 -->
      <g style="fill: #262626" transform="translate(202.671875 48.727053) scale(0.05 -0.05)">
       <use xlink:href="#ArialMT-31"/>
       <use xlink:href="#ArialMT-33" x="55.615234"/>
       <use xlink:href="#ArialMT-2e" x="111.230469"/>
       <use xlink:href="#ArialMT-31" x="139.013672"/>
      </g>
     </g>
    </g>
    <g id="ytick_11">
     <g id="line2d_28">
      <g>
       <use xlink:href="#mb63a6c1959" x="214.402344" y="31.9688" style="fill: #262626; stroke: #262626; stroke-width: 0.4"/>
      </g>
     </g>
     <g id="text_27">
      <!-- 12.7 -->
      <g style="fill: #262626" transform="translate(202.671875 33.758253) scale(0.05 -0.05)">
       <defs>
        <path id="ArialMT-37" d="M 303 3981 
L 303 4522 
L 3269 4522 
L 3269 4084 
Q 2831 3619 2401 2847 
Q 1972 2075 1738 1259 
Q 1569 684 1522 0 
L 944 0 
Q 953 541 1156 1306 
Q 1359 2072 1739 2783 
Q 2119 3494 2547 3981 
L 303 3981 
z
" transform="scale(0.015625)"/>
       </defs>
       <use xlink:href="#ArialMT-31"/>
       <use xlink:href="#ArialMT-32" x="55.615234"/>
       <use xlink:href="#ArialMT-2e" x="111.230469"/>
       <use xlink:href="#ArialMT-37" x="139.013672"/>
      </g>
     </g>
    </g>
    <g id="ytick_12">
     <g id="line2d_29">
      <g>
       <use xlink:href="#mb63a6c1959" x="214.402344" y="17" style="fill: #262626; stroke: #262626; stroke-width: 0.4"/>
      </g>
     </g>
     <g id="text_28">
      <!-- 12.3 -->
      <g style="fill: #262626" transform="translate(202.671875 18.789453) scale(0.05 -0.05)">
       <use xlink:href="#ArialMT-31"/>
       <use xlink:href="#ArialMT-32" x="55.615234"/>
       <use xlink:href="#ArialMT-2e" x="111.230469"/>
       <use xlink:href="#ArialMT-33" x="139.013672"/>
      </g>
     </g>
    </g>
   </g>
   <g id="patch_51">
    <path d="M 214.402344 91.844 
L 214.402344 17 
" style="fill: none; stroke: #262626; stroke-width: 0.8; stroke-linejoin: miter; stroke-linecap: square"/>
   </g>
   <g id="patch_52">
    <path d="M 214.402344 91.844 
L 214.402344 91.844 
" style="fill: none; stroke: #262626; stroke-width: 0.8; stroke-linejoin: miter; stroke-linecap: square"/>
   </g>
   <g id="text_29">
    <!-- T(φ) -->
    <g style="fill: #262626" transform="translate(209.589453 11) scale(0.05 -0.05)">
     <defs>
      <path id="ArialMT-54" d="M 1659 0 
L 1659 4041 
L 150 4041 
L 150 4581 
L 3781 4581 
L 3781 4041 
L 2266 4041 
L 2266 0 
L 1659 0 
z
" transform="scale(0.015625)"/>
      <path id="ArialMT-3c6" d="M 1559 3384 
L 1450 2897 
Q 803 2681 803 1766 
Q 803 1281 1058 901 
Q 1313 522 1819 413 
L 1819 2475 
Q 1819 2806 1866 2986 
Q 1913 3166 2080 3280 
Q 2247 3394 2534 3394 
Q 2981 3394 3261 3212 
Q 3541 3031 3734 2640 
Q 3928 2250 3928 1800 
Q 3928 1425 3775 1048 
Q 3622 672 3278 356 
Q 2934 41 2375 -78 
L 2375 -1272 
L 1819 -1272 
L 1819 -78 
Q 1238 -78 731 431 
Q 225 941 225 1741 
Q 225 2481 629 2939 
Q 1034 3397 1559 3384 
z
M 2375 438 
Q 2772 509 3055 881 
Q 3338 1253 3338 1856 
Q 3338 2416 3131 2672 
Q 2925 2928 2694 2928 
Q 2528 2928 2451 2814 
Q 2375 2700 2375 2313 
L 2375 438 
z
" transform="scale(0.015625)"/>
     </defs>
     <use xlink:href="#ArialMT-54"/>
     <use xlink:href="#ArialMT-28" x="61.083984"/>
     <use xlink:href="#ArialMT-3c6" x="94.384766"/>
     <use xlink:href="#ArialMT-29" x="159.228516"/>
    </g>
   </g>
  </g>
  <g id="axes_3">
   <g id="patch_53">
    <path d="M 231.142344 91.844 
L 231.142344 91.844 
L 231.142344 17 
L 231.142344 17 
z
" style="fill: #ffffff"/>
   </g>
   <g id="matplotlib.axis_4">
    <g id="ytick_13">
     <g id="line2d_30">
      <g>
       <use xlink:href="#mb63a6c1959" x="231.142344" y="91.844" style="fill: #262626; stroke: #262626; stroke-width: 0.4"/>
      </g>
     </g>
     <g id="text_30">
      <!-- 2.5 -->
      <g style="fill: #262626" transform="translate(222.192344 93.633453) scale(0.05 -0.05)">
       <use xlink:href="#ArialMT-32"/>
       <use xlink:href="#ArialMT-2e" x="55.615234"/>
       <use xlink:href="#ArialMT-35" x="83.398438"/>
      </g>
     </g>
    </g>
    <g id="ytick_14">
     <g id="line2d_31">
      <g>
       <use xlink:href="#mb63a6c1959" x="231.142344" y="76.8752" style="fill: #262626; stroke: #262626; stroke-width: 0.4"/>
      </g>
     </g>
     <g id="text_31">
      <!-- 2.3 -->
      <g style="fill: #262626" transform="translate(222.192344 78.664653) scale(0.05 -0.05)">
       <use xlink:href="#ArialMT-32"/>
       <use xlink:href="#ArialMT-2e" x="55.615234"/>
       <use xlink:href="#ArialMT-33" x="83.398438"/>
      </g>
     </g>
    </g>
    <g id="ytick_15">
     <g id="line2d_32">
      <g>
       <use xlink:href="#mb63a6c1959" x="231.142344" y="61.9064" style="fill: #262626; stroke: #262626; stroke-width: 0.4"/>
      </g>
     </g>
     <g id="text_32">
      <!-- 2.0 -->
      <g style="fill: #262626" transform="translate(222.192344 63.695853) scale(0.05 -0.05)">
       <use xlink:href="#ArialMT-32"/>
       <use xlink:href="#ArialMT-2e" x="55.615234"/>
       <use xlink:href="#ArialMT-30" x="83.398438"/>
      </g>
     </g>
    </g>
    <g id="ytick_16">
     <g id="line2d_33">
      <g>
       <use xlink:href="#mb63a6c1959" x="231.142344" y="46.9376" style="fill: #262626; stroke: #262626; stroke-width: 0.4"/>
      </g>
     </g>
     <g id="text_33">
      <!-- 1.8 -->
      <g style="fill: #262626" transform="translate(222.192344 48.727053) scale(0.05 -0.05)">
       <use xlink:href="#ArialMT-31"/>
       <use xlink:href="#ArialMT-2e" x="55.615234"/>
       <use xlink:href="#ArialMT-38" x="83.398438"/>
      </g>
     </g>
    </g>
    <g id="ytick_17">
     <g id="line2d_34">
      <g>
       <use xlink:href="#mb63a6c1959" x="231.142344" y="31.9688" style="fill: #262626; stroke: #262626; stroke-width: 0.4"/>
      </g>
     </g>
     <g id="text_34">
      <!-- 1.6 -->
      <g style="fill: #262626" transform="translate(222.192344 33.758253) scale(0.05 -0.05)">
       <use xlink:href="#ArialMT-31"/>
       <use xlink:href="#ArialMT-2e" x="55.615234"/>
       <use xlink:href="#ArialMT-36" x="83.398438"/>
      </g>
     </g>
    </g>
    <g id="ytick_18">
     <g id="line2d_35">
      <g>
       <use xlink:href="#mb63a6c1959" x="231.142344" y="17" style="fill: #262626; stroke: #262626; stroke-width: 0.4"/>
      </g>
     </g>
     <g id="text_35">
      <!-- 1.3 -->
      <g style="fill: #262626" transform="translate(222.192344 18.789453) scale(0.05 -0.05)">
       <use xlink:href="#ArialMT-31"/>
       <use xlink:href="#ArialMT-2e" x="55.615234"/>
       <use xlink:href="#ArialMT-33" x="83.398438"/>
      </g>
     </g>
    </g>
   </g>
   <g id="patch_54">
    <path d="M 231.142344 91.844 
L 231.142344 17 
" style="fill: none; stroke: #262626; stroke-width: 0.8; stroke-linejoin: miter; stroke-linecap: square"/>
   </g>
   <g id="patch_55">
    <path d="M 231.142344 91.844 
L 231.142344 17 
" style="fill: none; stroke: #262626; stroke-width: 0.8; stroke-linejoin: miter; stroke-linecap: square"/>
   </g>
   <g id="patch_56">
    <path d="M 231.142344 91.844 
L 231.142344 91.844 
" style="fill: none; stroke: #262626; stroke-width: 0.8; stroke-linejoin: miter; stroke-linecap: square"/>
   </g>
   <g id="patch_57">
    <path d="M 231.142344 17 
L 231.142344 17 
" style="fill: none; stroke: #262626; stroke-width: 0.8; stroke-linejoin: miter; stroke-linecap: square"/>
   </g>
   <g id="text_36">
    <!-- $Sd_{\varphi}$ -->
    <g style="fill: #262626" transform="translate(226.742344 11) scale(0.05 -0.05)">
     <defs>
      <path id="DejaVuSans-Oblique-53" d="M 3859 4513 
L 3738 3897 
Q 3422 4066 3111 4152 
Q 2800 4238 2509 4238 
Q 1944 4238 1609 3991 
Q 1275 3744 1275 3334 
Q 1275 3109 1398 2989 
Q 1522 2869 2034 2731 
L 2413 2638 
Q 3053 2472 3303 2217 
Q 3553 1963 3553 1503 
Q 3553 797 2998 353 
Q 2444 -91 1538 -91 
Q 1166 -91 791 -17 
Q 416 56 38 206 
L 166 856 
Q 513 641 861 531 
Q 1209 422 1556 422 
Q 2147 422 2503 684 
Q 2859 947 2859 1369 
Q 2859 1650 2717 1795 
Q 2575 1941 2106 2059 
L 1728 2156 
Q 1081 2325 845 2545 
Q 609 2766 609 3163 
Q 609 3859 1145 4304 
Q 1681 4750 2541 4750 
Q 2875 4750 3203 4690 
Q 3531 4631 3859 4513 
z
" transform="scale(0.015625)"/>
      <path id="DejaVuSans-Oblique-64" d="M 2675 525 
Q 2444 222 2128 65 
Q 1813 -91 1428 -91 
Q 903 -91 598 267 
Q 294 625 294 1247 
Q 294 1766 478 2236 
Q 663 2706 1013 3078 
Q 1244 3325 1534 3454 
Q 1825 3584 2144 3584 
Q 2481 3584 2739 3421 
Q 2997 3259 3138 2956 
L 3513 4863 
L 4091 4863 
L 3144 0 
L 2566 0 
L 2675 525 
z
M 891 1350 
Q 891 897 1095 644 
Q 1300 391 1663 391 
Q 1931 391 2161 520 
Q 2391 650 2566 903 
Q 2750 1166 2856 1509 
Q 2963 1853 2963 2188 
Q 2963 2622 2758 2865 
Q 2553 3109 2194 3109 
Q 1922 3109 1687 2981 
Q 1453 2853 1288 2613 
Q 1106 2353 998 2009 
Q 891 1666 891 1350 
z
" transform="scale(0.015625)"/>
      <path id="DejaVuSans-Oblique-3c6" d="M 2969 3034 
Q 2766 3034 2675 2581 
L 2259 438 
Q 2553 438 2916 763 
Q 3244 1053 3375 1750 
Q 3497 2400 3300 2750 
Q 3138 3034 2969 3034 
z
M 3063 3525 
Q 3513 3525 3819 3113 
Q 4147 2672 3981 1750 
Q 3828 903 3291 400 
Q 2784 -75 2159 -75 
L 1916 -1331 
L 1344 -1331 
L 1588 -78 
Q 963 -78 641 400 
Q 309 888 475 1747 
Q 647 2641 1166 3097 
Q 1556 3438 2084 3525 
L 1984 3016 
Q 1766 2944 1538 2700 
Q 1194 2341 1081 1747 
Q 963 1116 1156 756 
Q 1334 434 1688 434 
L 2103 2581 
Q 2288 3525 3063 3525 
z
" transform="scale(0.015625)"/>
     </defs>
     <use xlink:href="#DejaVuSans-Oblique-53" transform="translate(0 0.015625)"/>
     <use xlink:href="#DejaVuSans-Oblique-64" transform="translate(63.476562 0.015625)"/>
     <use xlink:href="#DejaVuSans-Oblique-3c6" transform="translate(126.953125 -16.390625) scale(0.7)"/>
    </g>
   </g>
  </g>
  <g id="axes_4">
   <g id="patch_58">
    <path d="M 247.882344 91.844 
L 247.882344 91.844 
L 247.882344 17 
L 247.882344 17 
z
" style="fill: #ffffff"/>
   </g>
   <g id="matplotlib.axis_5">
    <g id="ytick_19">
     <g id="line2d_36">
      <g>
       <use xlink:href="#mb63a6c1959" x="247.882344" y="91.844" style="fill: #262626; stroke: #262626; stroke-width: 0.4"/>
      </g>
     </g>
     <g id="text_37">
      <!-- 9.0 -->
      <g style="fill: #262626" transform="translate(238.932344 93.633453) scale(0.05 -0.05)">
       <defs>
        <path id="ArialMT-39" d="M 350 1059 
L 891 1109 
Q 959 728 1153 556 
Q 1347 384 1650 384 
Q 1909 384 2104 503 
Q 2300 622 2425 820 
Q 2550 1019 2634 1356 
Q 2719 1694 2719 2044 
Q 2719 2081 2716 2156 
Q 2547 1888 2255 1720 
Q 1963 1553 1622 1553 
Q 1053 1553 659 1965 
Q 266 2378 266 3053 
Q 266 3750 677 4175 
Q 1088 4600 1706 4600 
Q 2153 4600 2523 4359 
Q 2894 4119 3086 3673 
Q 3278 3228 3278 2384 
Q 3278 1506 3087 986 
Q 2897 466 2520 194 
Q 2144 -78 1638 -78 
Q 1100 -78 759 220 
Q 419 519 350 1059 
z
M 2653 3081 
Q 2653 3566 2395 3850 
Q 2138 4134 1775 4134 
Q 1400 4134 1122 3828 
Q 844 3522 844 3034 
Q 844 2597 1108 2323 
Q 1372 2050 1759 2050 
Q 2150 2050 2401 2323 
Q 2653 2597 2653 3081 
z
" transform="scale(0.015625)"/>
       </defs>
       <use xlink:href="#ArialMT-39"/>
       <use xlink:href="#ArialMT-2e" x="55.615234"/>
       <use xlink:href="#ArialMT-30" x="83.398438"/>
      </g>
     </g>
    </g>
    <g id="ytick_20">
     <g id="line2d_37">
      <g>
       <use xlink:href="#mb63a6c1959" x="247.882344" y="76.8752" style="fill: #262626; stroke: #262626; stroke-width: 0.4"/>
      </g>
     </g>
     <g id="text_38">
      <!-- 11.5 -->
      <g style="fill: #262626" transform="translate(236.520625 78.664653) scale(0.05 -0.05)">
       <use xlink:href="#ArialMT-31"/>
       <use xlink:href="#ArialMT-31" x="48.240234"/>
       <use xlink:href="#ArialMT-2e" x="103.855469"/>
       <use xlink:href="#ArialMT-35" x="131.638672"/>
      </g>
     </g>
    </g>
    <g id="ytick_21">
     <g id="line2d_38">
      <g>
       <use xlink:href="#mb63a6c1959" x="247.882344" y="61.9064" style="fill: #262626; stroke: #262626; stroke-width: 0.4"/>
      </g>
     </g>
     <g id="text_39">
      <!-- 14.0 -->
      <g style="fill: #262626" transform="translate(236.151875 63.695853) scale(0.05 -0.05)">
       <use xlink:href="#ArialMT-31"/>
       <use xlink:href="#ArialMT-34" x="55.615234"/>
       <use xlink:href="#ArialMT-2e" x="111.230469"/>
       <use xlink:href="#ArialMT-30" x="139.013672"/>
      </g>
     </g>
    </g>
    <g id="ytick_22">
     <g id="line2d_39">
      <g>
       <use xlink:href="#mb63a6c1959" x="247.882344" y="46.9376" style="fill: #262626; stroke: #262626; stroke-width: 0.4"/>
      </g>
     </g>
     <g id="text_40">
      <!-- 16.5 -->
      <g style="fill: #262626" transform="translate(236.151875 48.727053) scale(0.05 -0.05)">
       <use xlink:href="#ArialMT-31"/>
       <use xlink:href="#ArialMT-36" x="55.615234"/>
       <use xlink:href="#ArialMT-2e" x="111.230469"/>
       <use xlink:href="#ArialMT-35" x="139.013672"/>
      </g>
     </g>
    </g>
    <g id="ytick_23">
     <g id="line2d_40">
      <g>
       <use xlink:href="#mb63a6c1959" x="247.882344" y="31.9688" style="fill: #262626; stroke: #262626; stroke-width: 0.4"/>
      </g>
     </g>
     <g id="text_41">
      <!-- 19.0 -->
      <g style="fill: #262626" transform="translate(236.151875 33.758253) scale(0.05 -0.05)">
       <use xlink:href="#ArialMT-31"/>
       <use xlink:href="#ArialMT-39" x="55.615234"/>
       <use xlink:href="#ArialMT-2e" x="111.230469"/>
       <use xlink:href="#ArialMT-30" x="139.013672"/>
      </g>
     </g>
    </g>
    <g id="ytick_24">
     <g id="line2d_41">
      <g>
       <use xlink:href="#mb63a6c1959" x="247.882344" y="17" style="fill: #262626; stroke: #262626; stroke-width: 0.4"/>
      </g>
     </g>
     <g id="text_42">
      <!-- 21.5 -->
      <g style="fill: #262626" transform="translate(236.151875 18.789453) scale(0.05 -0.05)">
       <use xlink:href="#ArialMT-32"/>
       <use xlink:href="#ArialMT-31" x="55.615234"/>
       <use xlink:href="#ArialMT-2e" x="111.230469"/>
       <use xlink:href="#ArialMT-35" x="139.013672"/>
      </g>
     </g>
    </g>
   </g>
   <g id="patch_59">
    <path d="M 247.882344 91.844 
L 247.882344 17 
" style="fill: none; stroke: #262626; stroke-width: 0.8; stroke-linejoin: miter; stroke-linecap: square"/>
   </g>
   <g id="patch_60">
    <path d="M 247.882344 91.844 
L 247.882344 17 
" style="fill: none; stroke: #262626; stroke-width: 0.8; stroke-linejoin: miter; stroke-linecap: square"/>
   </g>
   <g id="patch_61">
    <path d="M 247.882344 91.844 
L 247.882344 91.844 
" style="fill: none; stroke: #262626; stroke-width: 0.8; stroke-linejoin: miter; stroke-linecap: square"/>
   </g>
   <g id="patch_62">
    <path d="M 247.882344 17 
L 247.882344 17 
" style="fill: none; stroke: #262626; stroke-width: 0.8; stroke-linejoin: miter; stroke-linecap: square"/>
   </g>
   <g id="text_43">
    <!-- Age -->
    <g style="fill: #262626" transform="translate(243.434297 11) scale(0.05 -0.05)">
     <use xlink:href="#ArialMT-41"/>
     <use xlink:href="#ArialMT-67" x="66.699219"/>
     <use xlink:href="#ArialMT-65" x="122.314453"/>
    </g>
   </g>
  </g>
  <g id="axes_5">
   <g id="patch_63">
    <path d="M 264.622344 91.844 
L 264.622344 91.844 
L 264.622344 17 
L 264.622344 17 
z
" style="fill: #ffffff"/>
   </g>
   <g id="matplotlib.axis_6">
    <g id="ytick_25">
     <g id="line2d_42">
      <g>
       <use xlink:href="#mb63a6c1959" x="264.622344" y="91.844" style="fill: #262626; stroke: #262626; stroke-width: 0.4"/>
      </g>
     </g>
     <g id="text_44">
      <!-- 0.13 -->
      <g style="fill: #262626" transform="translate(252.891875 93.633453) scale(0.05 -0.05)">
       <use xlink:href="#ArialMT-30"/>
       <use xlink:href="#ArialMT-2e" x="55.615234"/>
       <use xlink:href="#ArialMT-31" x="83.398438"/>
       <use xlink:href="#ArialMT-33" x="139.013672"/>
      </g>
     </g>
    </g>
    <g id="ytick_26">
     <g id="line2d_43">
      <g>
       <use xlink:href="#mb63a6c1959" x="264.622344" y="76.8752" style="fill: #262626; stroke: #262626; stroke-width: 0.4"/>
      </g>
     </g>
     <g id="text_45">
      <!-- 0.19 -->
      <g style="fill: #262626" transform="translate(252.891875 78.664653) scale(0.05 -0.05)">
       <use xlink:href="#ArialMT-30"/>
       <use xlink:href="#ArialMT-2e" x="55.615234"/>
       <use xlink:href="#ArialMT-31" x="83.398438"/>
       <use xlink:href="#ArialMT-39" x="139.013672"/>
      </g>
     </g>
    </g>
    <g id="ytick_27">
     <g id="line2d_44">
      <g>
       <use xlink:href="#mb63a6c1959" x="264.622344" y="61.9064" style="fill: #262626; stroke: #262626; stroke-width: 0.4"/>
      </g>
     </g>
     <g id="text_46">
      <!-- 0.25 -->
      <g style="fill: #262626" transform="translate(252.891875 63.695853) scale(0.05 -0.05)">
       <use xlink:href="#ArialMT-30"/>
       <use xlink:href="#ArialMT-2e" x="55.615234"/>
       <use xlink:href="#ArialMT-32" x="83.398438"/>
       <use xlink:href="#ArialMT-35" x="139.013672"/>
      </g>
     </g>
    </g>
    <g id="ytick_28">
     <g id="line2d_45">
      <g>
       <use xlink:href="#mb63a6c1959" x="264.622344" y="46.9376" style="fill: #262626; stroke: #262626; stroke-width: 0.4"/>
      </g>
     </g>
     <g id="text_47">
      <!-- 0.31 -->
      <g style="fill: #262626" transform="translate(252.891875 48.727053) scale(0.05 -0.05)">
       <use xlink:href="#ArialMT-30"/>
       <use xlink:href="#ArialMT-2e" x="55.615234"/>
       <use xlink:href="#ArialMT-33" x="83.398438"/>
       <use xlink:href="#ArialMT-31" x="139.013672"/>
      </g>
     </g>
    </g>
    <g id="ytick_29">
     <g id="line2d_46">
      <g>
       <use xlink:href="#mb63a6c1959" x="264.622344" y="31.9688" style="fill: #262626; stroke: #262626; stroke-width: 0.4"/>
      </g>
     </g>
     <g id="text_48">
      <!-- 0.37 -->
      <g style="fill: #262626" transform="translate(252.891875 33.758253) scale(0.05 -0.05)">
       <use xlink:href="#ArialMT-30"/>
       <use xlink:href="#ArialMT-2e" x="55.615234"/>
       <use xlink:href="#ArialMT-33" x="83.398438"/>
       <use xlink:href="#ArialMT-37" x="139.013672"/>
      </g>
     </g>
    </g>
    <g id="ytick_30">
     <g id="line2d_47">
      <g>
       <use xlink:href="#mb63a6c1959" x="264.622344" y="17" style="fill: #262626; stroke: #262626; stroke-width: 0.4"/>
      </g>
     </g>
     <g id="text_49">
      <!-- 0.43 -->
      <g style="fill: #262626" transform="translate(252.891875 18.789453) scale(0.05 -0.05)">
       <use xlink:href="#ArialMT-30"/>
       <use xlink:href="#ArialMT-2e" x="55.615234"/>
       <use xlink:href="#ArialMT-34" x="83.398438"/>
       <use xlink:href="#ArialMT-33" x="139.013672"/>
      </g>
     </g>
    </g>
   </g>
   <g id="patch_64">
    <path d="M 264.622344 91.844 
L 264.622344 17 
" style="fill: none; stroke: #262626; stroke-width: 0.8; stroke-linejoin: miter; stroke-linecap: square"/>
   </g>
   <g id="patch_65">
    <path d="M 264.622344 91.844 
L 264.622344 17 
" style="fill: none; stroke: #262626; stroke-width: 0.8; stroke-linejoin: miter; stroke-linecap: square"/>
   </g>
   <g id="patch_66">
    <path d="M 264.622344 91.844 
L 264.622344 91.844 
" style="fill: none; stroke: #262626; stroke-width: 0.8; stroke-linejoin: miter; stroke-linecap: square"/>
   </g>
   <g id="patch_67">
    <path d="M 264.622344 17 
L 264.622344 17 
" style="fill: none; stroke: #262626; stroke-width: 0.8; stroke-linejoin: miter; stroke-linecap: square"/>
   </g>
   <g id="text_50">
    <!-- R² -->
    <g style="fill: #262626" transform="translate(261.984453 11) scale(0.05 -0.05)">
     <use xlink:href="#ArialMT-52"/>
     <use xlink:href="#ArialMT-b2" x="72.216797"/>
    </g>
   </g>
  </g>
 </g>
 <defs>
  <clipPath id="p93ccee8b7b">
   <rect x="30.262344" y="17" width="167.4" height="74.844"/>
  </clipPath>
 </defs>
</svg>
