<?xml version="1.0" encoding="utf-8" standalone="no"?>
<!DOCTYPE svg PUBLIC "-//W3C//DTD SVG 1.1//EN"
  "http://www.w3.org/Graphics/SVG/1.1/DTD/svg11.dtd">
<svg xmlns:xlink="http://www.w3.org/1999/xlink" width="274.460234pt" height="118.968219pt" viewBox="0 0 274.460234 118.968219" xmlns="http://www.w3.org/2000/svg" version="1.1">
 <metadata>
  <rdf:RDF xmlns:dc="http://purl.org/dc/elements/1.1/" xmlns:cc="http://creativecommons.org/ns#" xmlns:rdf="http://www.w3.org/1999/02/22-rdf-syntax-ns#">
   <cc:Work>
    <dc:type rdf:resource="http://purl.org/dc/dcmitype/StillImage"/>
    <dc:date>2024-03-19T18:04:39.818997</dc:date>
    <dc:format>image/svg+xml</dc:format>
    <dc:creator>
     <cc:Agent>
      <dc:title>Matplotlib v3.8.0, https://matplotlib.org/</dc:title>
     </cc:Agent>
    </dc:creator>
   </cc:Work>
  </rdf:RDF>
 </metadata>
 <defs>
  <style type="text/css">*{stroke-linejoin: round; stroke-linecap: butt}</style>
 </defs>
 <g id="figure_1">
  <g id="patch_1">
   <path d="M 0 118.968219 
L 274.460234 118.968219 
L 274.460234 0 
L 0 0 
z
" style="fill: #ffffff"/>
  </g>
  <g id="axes_1">
   <g id="patch_2">
    <path d="M 30.262344 91.622906 
L 197.662344 91.622906 
L 197.662344 16.778906 
L 30.262344 16.778906 
z
" style="fill: #ffffff"/>
   </g>
   <g id="matplotlib.axis_1">
    <g id="xtick_1">
     <g id="line2d_1">
      <defs>
       <path id="m1a72232327" d="M 0 0 
L 0 3.5 
" style="stroke: #262626; stroke-width: 0.8"/>
      </defs>
      <g>
       <use xlink:href="#m1a72232327" x="30.262344" y="91.622906" style="fill: #262626; stroke: #262626; stroke-width: 0.8"/>
      </g>
     </g>
     <g id="text_1">
      <!-- 0 -->
      <g style="fill: #262626" transform="translate(28.872109 102.201813) scale(0.05 -0.05)">
       <defs>
        <path id="ArialMT-30" d="M 266 2259 
Q 266 3072 433 3567 
Q 600 4063 929 4331 
Q 1259 4600 1759 4600 
Q 2128 4600 2406 4451 
Q 2684 4303 2865 4023 
Q 3047 3744 3150 3342 
Q 3253 2941 3253 2259 
Q 3253 1453 3087 958 
Q 2922 463 2592 192 
Q 2263 -78 1759 -78 
Q 1097 -78 719 397 
Q 266 969 266 2259 
z
M 844 2259 
Q 844 1131 1108 757 
Q 1372 384 1759 384 
Q 2147 384 2411 759 
Q 2675 1134 2675 2259 
Q 2675 3391 2411 3762 
Q 2147 4134 1753 4134 
Q 1366 4134 1134 3806 
Q 844 3388 844 2259 
z
" transform="scale(0.015625)"/>
       </defs>
       <use xlink:href="#ArialMT-30"/>
      </g>
     </g>
    </g>
    <g id="xtick_2">
     <g id="line2d_2">
      <g>
       <use xlink:href="#m1a72232327" x="50.190915" y="91.622906" style="fill: #262626; stroke: #262626; stroke-width: 0.8"/>
      </g>
     </g>
     <g id="text_2">
      <!-- 50 -->
      <g style="fill: #262626" transform="translate(47.410446 102.201813) scale(0.05 -0.05)">
       <defs>
        <path id="ArialMT-35" d="M 266 1200 
L 856 1250 
Q 922 819 1161 601 
Q 1400 384 1738 384 
Q 2144 384 2425 690 
Q 2706 997 2706 1503 
Q 2706 1984 2436 2262 
Q 2166 2541 1728 2541 
Q 1456 2541 1237 2417 
Q 1019 2294 894 2097 
L 366 2166 
L 809 4519 
L 3088 4519 
L 3088 3981 
L 1259 3981 
L 1013 2750 
Q 1425 3038 1878 3038 
Q 2478 3038 2890 2622 
Q 3303 2206 3303 1553 
Q 3303 931 2941 478 
Q 2500 -78 1738 -78 
Q 1113 -78 717 272 
Q 322 622 266 1200 
z
" transform="scale(0.015625)"/>
       </defs>
       <use xlink:href="#ArialMT-35"/>
       <use xlink:href="#ArialMT-30" x="55.615234"/>
      </g>
     </g>
    </g>
    <g id="xtick_3">
     <g id="line2d_3">
      <g>
       <use xlink:href="#m1a72232327" x="70.119487" y="91.622906" style="fill: #262626; stroke: #262626; stroke-width: 0.8"/>
      </g>
     </g>
     <g id="text_3">
      <!-- 100 -->
      <g style="fill: #262626" transform="translate(65.948783 102.201813) scale(0.05 -0.05)">
       <defs>
        <path id="ArialMT-31" d="M 2384 0 
L 1822 0 
L 1822 3584 
Q 1619 3391 1289 3197 
Q 959 3003 697 2906 
L 697 3450 
Q 1169 3672 1522 3987 
Q 1875 4303 2022 4600 
L 2384 4600 
L 2384 0 
z
" transform="scale(0.015625)"/>
       </defs>
       <use xlink:href="#ArialMT-31"/>
       <use xlink:href="#ArialMT-30" x="55.615234"/>
       <use xlink:href="#ArialMT-30" x="111.230469"/>
      </g>
     </g>
    </g>
    <g id="xtick_4">
     <g id="line2d_4">
      <g>
       <use xlink:href="#m1a72232327" x="90.048058" y="91.622906" style="fill: #262626; stroke: #262626; stroke-width: 0.8"/>
      </g>
     </g>
     <g id="text_4">
      <!-- 150 -->
      <g style="fill: #262626" transform="translate(85.877355 102.201813) scale(0.05 -0.05)">
       <use xlink:href="#ArialMT-31"/>
       <use xlink:href="#ArialMT-35" x="55.615234"/>
       <use xlink:href="#ArialMT-30" x="111.230469"/>
      </g>
     </g>
    </g>
    <g id="xtick_5">
     <g id="line2d_5">
      <g>
       <use xlink:href="#m1a72232327" x="109.976629" y="91.622906" style="fill: #262626; stroke: #262626; stroke-width: 0.8"/>
      </g>
     </g>
     <g id="text_5">
      <!-- 200 -->
      <g style="fill: #262626" transform="translate(105.805926 102.201813) scale(0.05 -0.05)">
       <defs>
        <path id="ArialMT-32" d="M 3222 541 
L 3222 0 
L 194 0 
Q 188 203 259 391 
Q 375 700 629 1000 
Q 884 1300 1366 1694 
Q 2113 2306 2375 2664 
Q 2638 3022 2638 3341 
Q 2638 3675 2398 3904 
Q 2159 4134 1775 4134 
Q 1369 4134 1125 3890 
Q 881 3647 878 3216 
L 300 3275 
Q 359 3922 746 4261 
Q 1134 4600 1788 4600 
Q 2447 4600 2831 4234 
Q 3216 3869 3216 3328 
Q 3216 3053 3103 2787 
Q 2991 2522 2730 2228 
Q 2469 1934 1863 1422 
Q 1356 997 1212 845 
Q 1069 694 975 541 
L 3222 541 
z
" transform="scale(0.015625)"/>
       </defs>
       <use xlink:href="#ArialMT-32"/>
       <use xlink:href="#ArialMT-30" x="55.615234"/>
       <use xlink:href="#ArialMT-30" x="111.230469"/>
      </g>
     </g>
    </g>
    <g id="xtick_6">
     <g id="line2d_6">
      <g>
       <use xlink:href="#m1a72232327" x="129.905201" y="91.622906" style="fill: #262626; stroke: #262626; stroke-width: 0.8"/>
      </g>
     </g>
     <g id="text_6">
      <!-- 250 -->
      <g style="fill: #262626" transform="translate(125.734498 102.201813) scale(0.05 -0.05)">
       <use xlink:href="#ArialMT-32"/>
       <use xlink:href="#ArialMT-35" x="55.615234"/>
       <use xlink:href="#ArialMT-30" x="111.230469"/>
      </g>
     </g>
    </g>
    <g id="xtick_7">
     <g id="line2d_7">
      <g>
       <use xlink:href="#m1a72232327" x="149.833772" y="91.622906" style="fill: #262626; stroke: #262626; stroke-width: 0.8"/>
      </g>
     </g>
     <g id="text_7">
      <!-- 300 -->
      <g style="fill: #262626" transform="translate(145.663069 102.201813) scale(0.05 -0.05)">
       <defs>
        <path id="ArialMT-33" d="M 269 1209 
L 831 1284 
Q 928 806 1161 595 
Q 1394 384 1728 384 
Q 2125 384 2398 659 
Q 2672 934 2672 1341 
Q 2672 1728 2419 1979 
Q 2166 2231 1775 2231 
Q 1616 2231 1378 2169 
L 1441 2663 
Q 1497 2656 1531 2656 
Q 1891 2656 2178 2843 
Q 2466 3031 2466 3422 
Q 2466 3731 2256 3934 
Q 2047 4138 1716 4138 
Q 1388 4138 1169 3931 
Q 950 3725 888 3313 
L 325 3413 
Q 428 3978 793 4289 
Q 1159 4600 1703 4600 
Q 2078 4600 2393 4439 
Q 2709 4278 2876 4000 
Q 3044 3722 3044 3409 
Q 3044 3113 2884 2869 
Q 2725 2625 2413 2481 
Q 2819 2388 3044 2092 
Q 3269 1797 3269 1353 
Q 3269 753 2831 336 
Q 2394 -81 1725 -81 
Q 1122 -81 723 278 
Q 325 638 269 1209 
z
" transform="scale(0.015625)"/>
       </defs>
       <use xlink:href="#ArialMT-33"/>
       <use xlink:href="#ArialMT-30" x="55.615234"/>
       <use xlink:href="#ArialMT-30" x="111.230469"/>
      </g>
     </g>
    </g>
    <g id="xtick_8">
     <g id="line2d_8">
      <g>
       <use xlink:href="#m1a72232327" x="169.762344" y="91.622906" style="fill: #262626; stroke: #262626; stroke-width: 0.8"/>
      </g>
     </g>
     <g id="text_8">
      <!-- 350 -->
      <g style="fill: #262626" transform="translate(165.591641 102.201813) scale(0.05 -0.05)">
       <use xlink:href="#ArialMT-33"/>
       <use xlink:href="#ArialMT-35" x="55.615234"/>
       <use xlink:href="#ArialMT-30" x="111.230469"/>
      </g>
     </g>
    </g>
    <g id="xtick_9">
     <g id="line2d_9">
      <g>
       <use xlink:href="#m1a72232327" x="189.690915" y="91.622906" style="fill: #262626; stroke: #262626; stroke-width: 0.8"/>
      </g>
     </g>
     <g id="text_9">
      <!-- 400 -->
      <g style="fill: #262626" transform="translate(185.520212 102.201813) scale(0.05 -0.05)">
       <defs>
        <path id="ArialMT-34" d="M 2069 0 
L 2069 1097 
L 81 1097 
L 81 1613 
L 2172 4581 
L 2631 4581 
L 2631 1613 
L 3250 1613 
L 3250 1097 
L 2631 1097 
L 2631 0 
L 2069 0 
z
M 2069 1613 
L 2069 3678 
L 634 1613 
L 2069 1613 
z
" transform="scale(0.015625)"/>
       </defs>
       <use xlink:href="#ArialMT-34"/>
       <use xlink:href="#ArialMT-30" x="55.615234"/>
       <use xlink:href="#ArialMT-30" x="111.230469"/>
      </g>
     </g>
    </g>
    <g id="text_10">
     <!-- Distance to exit [mm] -->
     <g style="fill: #262626" transform="translate(90.623672 110.774469) scale(0.05 -0.05)">
      <defs>
       <path id="ArialMT-44" d="M 494 0 
L 494 4581 
L 2072 4581 
Q 2606 4581 2888 4516 
Q 3281 4425 3559 4188 
Q 3922 3881 4101 3404 
Q 4281 2928 4281 2316 
Q 4281 1794 4159 1391 
Q 4038 988 3847 723 
Q 3656 459 3429 307 
Q 3203 156 2883 78 
Q 2563 0 2147 0 
L 494 0 
z
M 1100 541 
L 2078 541 
Q 2531 541 2789 625 
Q 3047 709 3200 863 
Q 3416 1078 3536 1442 
Q 3656 1806 3656 2325 
Q 3656 3044 3420 3430 
Q 3184 3816 2847 3947 
Q 2603 4041 2063 4041 
L 1100 4041 
L 1100 541 
z
" transform="scale(0.015625)"/>
       <path id="ArialMT-69" d="M 425 3934 
L 425 4581 
L 988 4581 
L 988 3934 
L 425 3934 
z
M 425 0 
L 425 3319 
L 988 3319 
L 988 0 
L 425 0 
z
" transform="scale(0.015625)"/>
       <path id="ArialMT-73" d="M 197 991 
L 753 1078 
Q 800 744 1014 566 
Q 1228 388 1613 388 
Q 2000 388 2187 545 
Q 2375 703 2375 916 
Q 2375 1106 2209 1216 
Q 2094 1291 1634 1406 
Q 1016 1563 777 1677 
Q 538 1791 414 1992 
Q 291 2194 291 2438 
Q 291 2659 392 2848 
Q 494 3038 669 3163 
Q 800 3259 1026 3326 
Q 1253 3394 1513 3394 
Q 1903 3394 2198 3281 
Q 2494 3169 2634 2976 
Q 2775 2784 2828 2463 
L 2278 2388 
Q 2241 2644 2061 2787 
Q 1881 2931 1553 2931 
Q 1166 2931 1000 2803 
Q 834 2675 834 2503 
Q 834 2394 903 2306 
Q 972 2216 1119 2156 
Q 1203 2125 1616 2013 
Q 2213 1853 2448 1751 
Q 2684 1650 2818 1456 
Q 2953 1263 2953 975 
Q 2953 694 2789 445 
Q 2625 197 2315 61 
Q 2006 -75 1616 -75 
Q 969 -75 630 194 
Q 291 463 197 991 
z
" transform="scale(0.015625)"/>
       <path id="ArialMT-74" d="M 1650 503 
L 1731 6 
Q 1494 -44 1306 -44 
Q 1000 -44 831 53 
Q 663 150 594 308 
Q 525 466 525 972 
L 525 2881 
L 113 2881 
L 113 3319 
L 525 3319 
L 525 4141 
L 1084 4478 
L 1084 3319 
L 1650 3319 
L 1650 2881 
L 1084 2881 
L 1084 941 
Q 1084 700 1114 631 
Q 1144 563 1211 522 
Q 1278 481 1403 481 
Q 1497 481 1650 503 
z
" transform="scale(0.015625)"/>
       <path id="ArialMT-61" d="M 2588 409 
Q 2275 144 1986 34 
Q 1697 -75 1366 -75 
Q 819 -75 525 192 
Q 231 459 231 875 
Q 231 1119 342 1320 
Q 453 1522 633 1644 
Q 813 1766 1038 1828 
Q 1203 1872 1538 1913 
Q 2219 1994 2541 2106 
Q 2544 2222 2544 2253 
Q 2544 2597 2384 2738 
Q 2169 2928 1744 2928 
Q 1347 2928 1158 2789 
Q 969 2650 878 2297 
L 328 2372 
Q 403 2725 575 2942 
Q 747 3159 1072 3276 
Q 1397 3394 1825 3394 
Q 2250 3394 2515 3294 
Q 2781 3194 2906 3042 
Q 3031 2891 3081 2659 
Q 3109 2516 3109 2141 
L 3109 1391 
Q 3109 606 3145 398 
Q 3181 191 3288 0 
L 2700 0 
Q 2613 175 2588 409 
z
M 2541 1666 
Q 2234 1541 1622 1453 
Q 1275 1403 1131 1340 
Q 988 1278 909 1158 
Q 831 1038 831 891 
Q 831 666 1001 516 
Q 1172 366 1500 366 
Q 1825 366 2078 508 
Q 2331 650 2450 897 
Q 2541 1088 2541 1459 
L 2541 1666 
z
" transform="scale(0.015625)"/>
       <path id="ArialMT-6e" d="M 422 0 
L 422 3319 
L 928 3319 
L 928 2847 
Q 1294 3394 1984 3394 
Q 2284 3394 2536 3286 
Q 2788 3178 2913 3003 
Q 3038 2828 3088 2588 
Q 3119 2431 3119 2041 
L 3119 0 
L 2556 0 
L 2556 2019 
Q 2556 2363 2490 2533 
Q 2425 2703 2258 2804 
Q 2091 2906 1866 2906 
Q 1506 2906 1245 2678 
Q 984 2450 984 1813 
L 984 0 
L 422 0 
z
" transform="scale(0.015625)"/>
       <path id="ArialMT-63" d="M 2588 1216 
L 3141 1144 
Q 3050 572 2676 248 
Q 2303 -75 1759 -75 
Q 1078 -75 664 370 
Q 250 816 250 1647 
Q 250 2184 428 2587 
Q 606 2991 970 3192 
Q 1334 3394 1763 3394 
Q 2303 3394 2647 3120 
Q 2991 2847 3088 2344 
L 2541 2259 
Q 2463 2594 2264 2762 
Q 2066 2931 1784 2931 
Q 1359 2931 1093 2626 
Q 828 2322 828 1663 
Q 828 994 1084 691 
Q 1341 388 1753 388 
Q 2084 388 2306 591 
Q 2528 794 2588 1216 
z
" transform="scale(0.015625)"/>
       <path id="ArialMT-65" d="M 2694 1069 
L 3275 997 
Q 3138 488 2766 206 
Q 2394 -75 1816 -75 
Q 1088 -75 661 373 
Q 234 822 234 1631 
Q 234 2469 665 2931 
Q 1097 3394 1784 3394 
Q 2450 3394 2872 2941 
Q 3294 2488 3294 1666 
Q 3294 1616 3291 1516 
L 816 1516 
Q 847 969 1125 678 
Q 1403 388 1819 388 
Q 2128 388 2347 550 
Q 2566 713 2694 1069 
z
M 847 1978 
L 2700 1978 
Q 2663 2397 2488 2606 
Q 2219 2931 1791 2931 
Q 1403 2931 1139 2672 
Q 875 2413 847 1978 
z
" transform="scale(0.015625)"/>
       <path id="ArialMT-20" transform="scale(0.015625)"/>
       <path id="ArialMT-6f" d="M 213 1659 
Q 213 2581 725 3025 
Q 1153 3394 1769 3394 
Q 2453 3394 2887 2945 
Q 3322 2497 3322 1706 
Q 3322 1066 3130 698 
Q 2938 331 2570 128 
Q 2203 -75 1769 -75 
Q 1072 -75 642 372 
Q 213 819 213 1659 
z
M 791 1659 
Q 791 1022 1069 705 
Q 1347 388 1769 388 
Q 2188 388 2466 706 
Q 2744 1025 2744 1678 
Q 2744 2294 2464 2611 
Q 2184 2928 1769 2928 
Q 1347 2928 1069 2612 
Q 791 2297 791 1659 
z
" transform="scale(0.015625)"/>
       <path id="ArialMT-78" d="M 47 0 
L 1259 1725 
L 138 3319 
L 841 3319 
L 1350 2541 
Q 1494 2319 1581 2169 
Q 1719 2375 1834 2534 
L 2394 3319 
L 3066 3319 
L 1919 1756 
L 3153 0 
L 2463 0 
L 1781 1031 
L 1600 1309 
L 728 0 
L 47 0 
z
" transform="scale(0.015625)"/>
       <path id="ArialMT-5b" d="M 434 -1272 
L 434 4581 
L 1675 4581 
L 1675 4116 
L 997 4116 
L 997 -806 
L 1675 -806 
L 1675 -1272 
L 434 -1272 
z
" transform="scale(0.015625)"/>
       <path id="ArialMT-6d" d="M 422 0 
L 422 3319 
L 925 3319 
L 925 2853 
Q 1081 3097 1340 3245 
Q 1600 3394 1931 3394 
Q 2300 3394 2536 3241 
Q 2772 3088 2869 2813 
Q 3263 3394 3894 3394 
Q 4388 3394 4653 3120 
Q 4919 2847 4919 2278 
L 4919 0 
L 4359 0 
L 4359 2091 
Q 4359 2428 4304 2576 
Q 4250 2725 4106 2815 
Q 3963 2906 3769 2906 
Q 3419 2906 3187 2673 
Q 2956 2441 2956 1928 
L 2956 0 
L 2394 0 
L 2394 2156 
Q 2394 2531 2256 2718 
Q 2119 2906 1806 2906 
Q 1569 2906 1367 2781 
Q 1166 2656 1075 2415 
Q 984 2175 984 1722 
L 984 0 
L 422 0 
z
" transform="scale(0.015625)"/>
       <path id="ArialMT-5d" d="M 1363 -1272 
L 122 -1272 
L 122 -806 
L 800 -806 
L 800 4116 
L 122 4116 
L 122 4581 
L 1363 4581 
L 1363 -1272 
z
" transform="scale(0.015625)"/>
      </defs>
      <use xlink:href="#ArialMT-44"/>
      <use xlink:href="#ArialMT-69" x="72.216797"/>
      <use xlink:href="#ArialMT-73" x="94.433594"/>
      <use xlink:href="#ArialMT-74" x="144.433594"/>
      <use xlink:href="#ArialMT-61" x="172.216797"/>
      <use xlink:href="#ArialMT-6e" x="227.832031"/>
      <use xlink:href="#ArialMT-63" x="283.447266"/>
      <use xlink:href="#ArialMT-65" x="333.447266"/>
      <use xlink:href="#ArialMT-20" x="389.0625"/>
      <use xlink:href="#ArialMT-74" x="416.845703"/>
      <use xlink:href="#ArialMT-6f" x="444.628906"/>
      <use xlink:href="#ArialMT-20" x="500.244141"/>
      <use xlink:href="#ArialMT-65" x="528.027344"/>
      <use xlink:href="#ArialMT-78" x="583.642578"/>
      <use xlink:href="#ArialMT-69" x="633.642578"/>
      <use xlink:href="#ArialMT-74" x="655.859375"/>
      <use xlink:href="#ArialMT-20" x="683.642578"/>
      <use xlink:href="#ArialMT-5b" x="711.425781"/>
      <use xlink:href="#ArialMT-6d" x="739.208984"/>
      <use xlink:href="#ArialMT-6d" x="822.509766"/>
      <use xlink:href="#ArialMT-5d" x="905.810547"/>
     </g>
    </g>
   </g>
   <g id="matplotlib.axis_2">
    <g id="ytick_1">
     <g id="line2d_10">
      <defs>
       <path id="mfb46f8e8d3" d="M 0 0 
L -1 0 
" style="stroke: #262626; stroke-width: 0.4"/>
      </defs>
      <g>
       <use xlink:href="#mfb46f8e8d3" x="30.262344" y="91.622906" style="fill: #262626; stroke: #262626; stroke-width: 0.4"/>
      </g>
     </g>
     <g id="text_11">
      <!-- 0.0 -->
      <g style="fill: #262626" transform="translate(21.312344 93.412359) scale(0.05 -0.05)">
       <defs>
        <path id="ArialMT-2e" d="M 581 0 
L 581 641 
L 1222 641 
L 1222 0 
L 581 0 
z
" transform="scale(0.015625)"/>
       </defs>
       <use xlink:href="#ArialMT-30"/>
       <use xlink:href="#ArialMT-2e" x="55.615234"/>
       <use xlink:href="#ArialMT-30" x="83.398438"/>
      </g>
     </g>
    </g>
    <g id="ytick_2">
     <g id="line2d_11">
      <g>
       <use xlink:href="#mfb46f8e8d3" x="30.262344" y="76.654106" style="fill: #262626; stroke: #262626; stroke-width: 0.4"/>
      </g>
     </g>
     <g id="text_12">
      <!-- 0.2 -->
      <g style="fill: #262626" transform="translate(21.312344 78.443559) scale(0.05 -0.05)">
       <use xlink:href="#ArialMT-30"/>
       <use xlink:href="#ArialMT-2e" x="55.615234"/>
       <use xlink:href="#ArialMT-32" x="83.398438"/>
      </g>
     </g>
    </g>
    <g id="ytick_3">
     <g id="line2d_12">
      <g>
       <use xlink:href="#mfb46f8e8d3" x="30.262344" y="61.685306" style="fill: #262626; stroke: #262626; stroke-width: 0.4"/>
      </g>
     </g>
     <g id="text_13">
      <!-- 0.4 -->
      <g style="fill: #262626" transform="translate(21.312344 63.474759) scale(0.05 -0.05)">
       <use xlink:href="#ArialMT-30"/>
       <use xlink:href="#ArialMT-2e" x="55.615234"/>
       <use xlink:href="#ArialMT-34" x="83.398438"/>
      </g>
     </g>
    </g>
    <g id="ytick_4">
     <g id="line2d_13">
      <g>
       <use xlink:href="#mfb46f8e8d3" x="30.262344" y="46.716506" style="fill: #262626; stroke: #262626; stroke-width: 0.4"/>
      </g>
     </g>
     <g id="text_14">
      <!-- 0.6 -->
      <g style="fill: #262626" transform="translate(21.312344 48.505959) scale(0.05 -0.05)">
       <defs>
        <path id="ArialMT-36" d="M 3184 3459 
L 2625 3416 
Q 2550 3747 2413 3897 
Q 2184 4138 1850 4138 
Q 1581 4138 1378 3988 
Q 1113 3794 959 3422 
Q 806 3050 800 2363 
Q 1003 2672 1297 2822 
Q 1591 2972 1913 2972 
Q 2475 2972 2870 2558 
Q 3266 2144 3266 1488 
Q 3266 1056 3080 686 
Q 2894 316 2569 119 
Q 2244 -78 1831 -78 
Q 1128 -78 684 439 
Q 241 956 241 2144 
Q 241 3472 731 4075 
Q 1159 4600 1884 4600 
Q 2425 4600 2770 4297 
Q 3116 3994 3184 3459 
z
M 888 1484 
Q 888 1194 1011 928 
Q 1134 663 1356 523 
Q 1578 384 1822 384 
Q 2178 384 2434 671 
Q 2691 959 2691 1453 
Q 2691 1928 2437 2201 
Q 2184 2475 1800 2475 
Q 1419 2475 1153 2201 
Q 888 1928 888 1484 
z
" transform="scale(0.015625)"/>
       </defs>
       <use xlink:href="#ArialMT-30"/>
       <use xlink:href="#ArialMT-2e" x="55.615234"/>
       <use xlink:href="#ArialMT-36" x="83.398438"/>
      </g>
     </g>
    </g>
    <g id="ytick_5">
     <g id="line2d_14">
      <g>
       <use xlink:href="#mfb46f8e8d3" x="30.262344" y="31.747706" style="fill: #262626; stroke: #262626; stroke-width: 0.4"/>
      </g>
     </g>
     <g id="text_15">
      <!-- 0.8 -->
      <g style="fill: #262626" transform="translate(21.312344 33.537159) scale(0.05 -0.05)">
       <defs>
        <path id="ArialMT-38" d="M 1131 2484 
Q 781 2613 612 2850 
Q 444 3088 444 3419 
Q 444 3919 803 4259 
Q 1163 4600 1759 4600 
Q 2359 4600 2725 4251 
Q 3091 3903 3091 3403 
Q 3091 3084 2923 2848 
Q 2756 2613 2416 2484 
Q 2838 2347 3058 2040 
Q 3278 1734 3278 1309 
Q 3278 722 2862 322 
Q 2447 -78 1769 -78 
Q 1091 -78 675 323 
Q 259 725 259 1325 
Q 259 1772 486 2073 
Q 713 2375 1131 2484 
z
M 1019 3438 
Q 1019 3113 1228 2906 
Q 1438 2700 1772 2700 
Q 2097 2700 2305 2904 
Q 2513 3109 2513 3406 
Q 2513 3716 2298 3927 
Q 2084 4138 1766 4138 
Q 1444 4138 1231 3931 
Q 1019 3725 1019 3438 
z
M 838 1322 
Q 838 1081 952 856 
Q 1066 631 1291 507 
Q 1516 384 1775 384 
Q 2178 384 2440 643 
Q 2703 903 2703 1303 
Q 2703 1709 2433 1975 
Q 2163 2241 1756 2241 
Q 1359 2241 1098 1978 
Q 838 1716 838 1322 
z
" transform="scale(0.015625)"/>
       </defs>
       <use xlink:href="#ArialMT-30"/>
       <use xlink:href="#ArialMT-2e" x="55.615234"/>
       <use xlink:href="#ArialMT-38" x="83.398438"/>
      </g>
     </g>
    </g>
    <g id="ytick_6">
     <g id="line2d_15">
      <g>
       <use xlink:href="#mfb46f8e8d3" x="30.262344" y="16.778906" style="fill: #262626; stroke: #262626; stroke-width: 0.4"/>
      </g>
     </g>
     <g id="text_16">
      <!-- 1.0 -->
      <g style="fill: #262626" transform="translate(21.312344 18.568359) scale(0.05 -0.05)">
       <use xlink:href="#ArialMT-31"/>
       <use xlink:href="#ArialMT-2e" x="55.615234"/>
       <use xlink:href="#ArialMT-30" x="83.398438"/>
      </g>
     </g>
    </g>
    <g id="text_17">
     <!-- Phase Median/ Phase Std/ Age Median/ -->
     <g style="fill: #262626" transform="translate(10.839844 98.394266) rotate(-90) scale(0.05 -0.05)">
      <defs>
       <path id="ArialMT-50" d="M 494 0 
L 494 4581 
L 2222 4581 
Q 2678 4581 2919 4538 
Q 3256 4481 3484 4323 
Q 3713 4166 3852 3881 
Q 3991 3597 3991 3256 
Q 3991 2672 3619 2267 
Q 3247 1863 2275 1863 
L 1100 1863 
L 1100 0 
L 494 0 
z
M 1100 2403 
L 2284 2403 
Q 2872 2403 3119 2622 
Q 3366 2841 3366 3238 
Q 3366 3525 3220 3729 
Q 3075 3934 2838 4000 
Q 2684 4041 2272 4041 
L 1100 4041 
L 1100 2403 
z
" transform="scale(0.015625)"/>
       <path id="ArialMT-68" d="M 422 0 
L 422 4581 
L 984 4581 
L 984 2938 
Q 1378 3394 1978 3394 
Q 2347 3394 2619 3248 
Q 2891 3103 3008 2847 
Q 3125 2591 3125 2103 
L 3125 0 
L 2563 0 
L 2563 2103 
Q 2563 2525 2380 2717 
Q 2197 2909 1863 2909 
Q 1613 2909 1392 2779 
Q 1172 2650 1078 2428 
Q 984 2206 984 1816 
L 984 0 
L 422 0 
z
" transform="scale(0.015625)"/>
       <path id="ArialMT-4d" d="M 475 0 
L 475 4581 
L 1388 4581 
L 2472 1338 
Q 2622 884 2691 659 
Q 2769 909 2934 1394 
L 4031 4581 
L 4847 4581 
L 4847 0 
L 4263 0 
L 4263 3834 
L 2931 0 
L 2384 0 
L 1059 3900 
L 1059 0 
L 475 0 
z
" transform="scale(0.015625)"/>
       <path id="ArialMT-64" d="M 2575 0 
L 2575 419 
Q 2259 -75 1647 -75 
Q 1250 -75 917 144 
Q 584 363 401 755 
Q 219 1147 219 1656 
Q 219 2153 384 2558 
Q 550 2963 881 3178 
Q 1213 3394 1622 3394 
Q 1922 3394 2156 3267 
Q 2391 3141 2538 2938 
L 2538 4581 
L 3097 4581 
L 3097 0 
L 2575 0 
z
M 797 1656 
Q 797 1019 1065 703 
Q 1334 388 1700 388 
Q 2069 388 2326 689 
Q 2584 991 2584 1609 
Q 2584 2291 2321 2609 
Q 2059 2928 1675 2928 
Q 1300 2928 1048 2622 
Q 797 2316 797 1656 
z
" transform="scale(0.015625)"/>
       <path id="ArialMT-2f" d="M 0 -78 
L 1328 4659 
L 1778 4659 
L 453 -78 
L 0 -78 
z
" transform="scale(0.015625)"/>
       <path id="ArialMT-53" d="M 288 1472 
L 859 1522 
Q 900 1178 1048 958 
Q 1197 738 1509 602 
Q 1822 466 2213 466 
Q 2559 466 2825 569 
Q 3091 672 3220 851 
Q 3350 1031 3350 1244 
Q 3350 1459 3225 1620 
Q 3100 1781 2813 1891 
Q 2628 1963 1997 2114 
Q 1366 2266 1113 2400 
Q 784 2572 623 2826 
Q 463 3081 463 3397 
Q 463 3744 659 4045 
Q 856 4347 1234 4503 
Q 1613 4659 2075 4659 
Q 2584 4659 2973 4495 
Q 3363 4331 3572 4012 
Q 3781 3694 3797 3291 
L 3216 3247 
Q 3169 3681 2898 3903 
Q 2628 4125 2100 4125 
Q 1550 4125 1298 3923 
Q 1047 3722 1047 3438 
Q 1047 3191 1225 3031 
Q 1400 2872 2139 2705 
Q 2878 2538 3153 2413 
Q 3553 2228 3743 1945 
Q 3934 1663 3934 1294 
Q 3934 928 3725 604 
Q 3516 281 3123 101 
Q 2731 -78 2241 -78 
Q 1619 -78 1198 103 
Q 778 284 539 648 
Q 300 1013 288 1472 
z
" transform="scale(0.015625)"/>
       <path id="ArialMT-41" d="M -9 0 
L 1750 4581 
L 2403 4581 
L 4278 0 
L 3588 0 
L 3053 1388 
L 1138 1388 
L 634 0 
L -9 0 
z
M 1313 1881 
L 2866 1881 
L 2388 3150 
Q 2169 3728 2063 4100 
Q 1975 3659 1816 3225 
L 1313 1881 
z
" transform="scale(0.015625)"/>
       <path id="ArialMT-67" d="M 319 -275 
L 866 -356 
Q 900 -609 1056 -725 
Q 1266 -881 1628 -881 
Q 2019 -881 2231 -725 
Q 2444 -569 2519 -288 
Q 2563 -116 2559 434 
Q 2191 0 1641 0 
Q 956 0 581 494 
Q 206 988 206 1678 
Q 206 2153 378 2554 
Q 550 2956 876 3175 
Q 1203 3394 1644 3394 
Q 2231 3394 2613 2919 
L 2613 3319 
L 3131 3319 
L 3131 450 
Q 3131 -325 2973 -648 
Q 2816 -972 2473 -1159 
Q 2131 -1347 1631 -1347 
Q 1038 -1347 672 -1080 
Q 306 -813 319 -275 
z
M 784 1719 
Q 784 1066 1043 766 
Q 1303 466 1694 466 
Q 2081 466 2343 764 
Q 2606 1063 2606 1700 
Q 2606 2309 2336 2618 
Q 2066 2928 1684 2928 
Q 1309 2928 1046 2623 
Q 784 2319 784 1719 
z
" transform="scale(0.015625)"/>
      </defs>
      <use xlink:href="#ArialMT-50"/>
      <use xlink:href="#ArialMT-68" x="66.699219"/>
      <use xlink:href="#ArialMT-61" x="122.314453"/>
      <use xlink:href="#ArialMT-73" x="177.929688"/>
      <use xlink:href="#ArialMT-65" x="227.929688"/>
      <use xlink:href="#ArialMT-20" x="283.544922"/>
      <use xlink:href="#ArialMT-4d" x="311.328125"/>
      <use xlink:href="#ArialMT-65" x="394.628906"/>
      <use xlink:href="#ArialMT-64" x="450.244141"/>
      <use xlink:href="#ArialMT-69" x="505.859375"/>
      <use xlink:href="#ArialMT-61" x="528.076172"/>
      <use xlink:href="#ArialMT-6e" x="583.691406"/>
      <use xlink:href="#ArialMT-2f" x="639.306641"/>
      <use xlink:href="#ArialMT-20" x="667.089844"/>
      <use xlink:href="#ArialMT-50" x="694.873047"/>
      <use xlink:href="#ArialMT-68" x="761.572266"/>
      <use xlink:href="#ArialMT-61" x="817.1875"/>
      <use xlink:href="#ArialMT-73" x="872.802734"/>
      <use xlink:href="#ArialMT-65" x="922.802734"/>
      <use xlink:href="#ArialMT-20" x="978.417969"/>
      <use xlink:href="#ArialMT-53" x="1006.201172"/>
      <use xlink:href="#ArialMT-74" x="1072.900391"/>
      <use xlink:href="#ArialMT-64" x="1100.683594"/>
      <use xlink:href="#ArialMT-2f" x="1156.298828"/>
      <use xlink:href="#ArialMT-20" x="1184.082031"/>
      <use xlink:href="#ArialMT-41" x="1206.365234"/>
      <use xlink:href="#ArialMT-67" x="1273.064453"/>
      <use xlink:href="#ArialMT-65" x="1328.679688"/>
      <use xlink:href="#ArialMT-20" x="1384.294922"/>
      <use xlink:href="#ArialMT-4d" x="1412.078125"/>
      <use xlink:href="#ArialMT-65" x="1495.378906"/>
      <use xlink:href="#ArialMT-64" x="1550.994141"/>
      <use xlink:href="#ArialMT-69" x="1606.609375"/>
      <use xlink:href="#ArialMT-61" x="1628.826172"/>
      <use xlink:href="#ArialMT-6e" x="1684.441406"/>
      <use xlink:href="#ArialMT-2f" x="1740.056641"/>
     </g>
     <!-- R² Median (Min-Max Normalized) -->
     <g style="fill: #262626" transform="translate(16.26 91.011453) rotate(-90) scale(0.05 -0.05)">
      <defs>
       <path id="ArialMT-52" d="M 503 0 
L 503 4581 
L 2534 4581 
Q 3147 4581 3465 4457 
Q 3784 4334 3975 4021 
Q 4166 3709 4166 3331 
Q 4166 2844 3850 2509 
Q 3534 2175 2875 2084 
Q 3116 1969 3241 1856 
Q 3506 1613 3744 1247 
L 4541 0 
L 3778 0 
L 3172 953 
Q 2906 1366 2734 1584 
Q 2563 1803 2427 1890 
Q 2291 1978 2150 2013 
Q 2047 2034 1813 2034 
L 1109 2034 
L 1109 0 
L 503 0 
z
M 1109 2559 
L 2413 2559 
Q 2828 2559 3062 2645 
Q 3297 2731 3419 2920 
Q 3541 3109 3541 3331 
Q 3541 3656 3305 3865 
Q 3069 4075 2559 4075 
L 1109 4075 
L 1109 2559 
z
" transform="scale(0.015625)"/>
       <path id="ArialMT-b2" d="M 78 2291 
Q 97 2469 225 2647 
Q 422 2916 872 3242 
Q 1322 3569 1406 3663 
Q 1522 3791 1522 3925 
Q 1522 4075 1412 4172 
Q 1303 4269 1091 4269 
Q 884 4269 782 4195 
Q 681 4122 616 3913 
L 144 3963 
Q 234 4309 457 4473 
Q 681 4638 1100 4638 
Q 1572 4638 1792 4453 
Q 2013 4269 2013 4003 
Q 2013 3741 1828 3506 
Q 1688 3331 1188 2972 
Q 928 2781 819 2669 
L 2025 2669 
L 2025 2291 
L 78 2291 
z
" transform="scale(0.015625)"/>
       <path id="ArialMT-28" d="M 1497 -1347 
Q 1031 -759 709 28 
Q 388 816 388 1659 
Q 388 2403 628 3084 
Q 909 3875 1497 4659 
L 1900 4659 
Q 1522 4009 1400 3731 
Q 1209 3300 1100 2831 
Q 966 2247 966 1656 
Q 966 153 1900 -1347 
L 1497 -1347 
z
" transform="scale(0.015625)"/>
       <path id="ArialMT-2d" d="M 203 1375 
L 203 1941 
L 1931 1941 
L 1931 1375 
L 203 1375 
z
" transform="scale(0.015625)"/>
       <path id="ArialMT-4e" d="M 488 0 
L 488 4581 
L 1109 4581 
L 3516 984 
L 3516 4581 
L 4097 4581 
L 4097 0 
L 3475 0 
L 1069 3600 
L 1069 0 
L 488 0 
z
" transform="scale(0.015625)"/>
       <path id="ArialMT-72" d="M 416 0 
L 416 3319 
L 922 3319 
L 922 2816 
Q 1116 3169 1280 3281 
Q 1444 3394 1641 3394 
Q 1925 3394 2219 3213 
L 2025 2691 
Q 1819 2813 1613 2813 
Q 1428 2813 1281 2702 
Q 1134 2591 1072 2394 
Q 978 2094 978 1738 
L 978 0 
L 416 0 
z
" transform="scale(0.015625)"/>
       <path id="ArialMT-6c" d="M 409 0 
L 409 4581 
L 972 4581 
L 972 0 
L 409 0 
z
" transform="scale(0.015625)"/>
       <path id="ArialMT-7a" d="M 125 0 
L 125 456 
L 2238 2881 
Q 1878 2863 1603 2863 
L 250 2863 
L 250 3319 
L 2963 3319 
L 2963 2947 
L 1166 841 
L 819 456 
Q 1197 484 1528 484 
L 3063 484 
L 3063 0 
L 125 0 
z
" transform="scale(0.015625)"/>
       <path id="ArialMT-29" d="M 791 -1347 
L 388 -1347 
Q 1322 153 1322 1656 
Q 1322 2244 1188 2822 
Q 1081 3291 891 3722 
Q 769 4003 388 4659 
L 791 4659 
Q 1378 3875 1659 3084 
Q 1900 2403 1900 1659 
Q 1900 816 1576 28 
Q 1253 -759 791 -1347 
z
" transform="scale(0.015625)"/>
      </defs>
      <use xlink:href="#ArialMT-52"/>
      <use xlink:href="#ArialMT-b2" x="72.216797"/>
      <use xlink:href="#ArialMT-20" x="105.517578"/>
      <use xlink:href="#ArialMT-4d" x="133.300781"/>
      <use xlink:href="#ArialMT-65" x="216.601562"/>
      <use xlink:href="#ArialMT-64" x="272.216797"/>
      <use xlink:href="#ArialMT-69" x="327.832031"/>
      <use xlink:href="#ArialMT-61" x="350.048828"/>
      <use xlink:href="#ArialMT-6e" x="405.664062"/>
      <use xlink:href="#ArialMT-20" x="461.279297"/>
      <use xlink:href="#ArialMT-28" x="489.0625"/>
      <use xlink:href="#ArialMT-4d" x="522.363281"/>
      <use xlink:href="#ArialMT-69" x="605.664062"/>
      <use xlink:href="#ArialMT-6e" x="627.880859"/>
      <use xlink:href="#ArialMT-2d" x="683.496094"/>
      <use xlink:href="#ArialMT-4d" x="716.796875"/>
      <use xlink:href="#ArialMT-61" x="800.097656"/>
      <use xlink:href="#ArialMT-78" x="855.712891"/>
      <use xlink:href="#ArialMT-20" x="905.712891"/>
      <use xlink:href="#ArialMT-4e" x="933.496094"/>
      <use xlink:href="#ArialMT-6f" x="1005.712891"/>
      <use xlink:href="#ArialMT-72" x="1061.328125"/>
      <use xlink:href="#ArialMT-6d" x="1094.628906"/>
      <use xlink:href="#ArialMT-61" x="1177.929688"/>
      <use xlink:href="#ArialMT-6c" x="1233.544922"/>
      <use xlink:href="#ArialMT-69" x="1255.761719"/>
      <use xlink:href="#ArialMT-7a" x="1277.978516"/>
      <use xlink:href="#ArialMT-65" x="1327.978516"/>
      <use xlink:href="#ArialMT-64" x="1383.59375"/>
      <use xlink:href="#ArialMT-29" x="1439.208984"/>
     </g>
    </g>
   </g>
   <g id="line2d_16">
    <path d="M 42.219487 18.387378 
L 46.205201 16.778906 
L 50.190915 31.154825 
L 54.176629 30.399558 
L 58.162344 30.775284 
L 62.148058 27.955773 
L 66.133772 27.097151 
L 70.119487 28.702043 
L 74.105201 27.137551 
L 78.090915 26.559547 
L 82.076629 27.864019 
L 86.062344 29.536174 
L 90.048058 33.319616 
L 94.033772 37.442021 
L 98.019487 40.912378 
L 102.005201 44.552893 
L 105.990915 48.656307 
L 109.976629 51.184397 
L 113.962344 53.538189 
L 117.948058 58.471904 
L 121.933772 62.501672 
L 125.919487 64.958874 
L 129.905201 65.245898 
L 133.890915 62.481103 
L 137.876629 61.544161 
L 141.862344 61.05487 
L 145.848058 63.331137 
L 149.833772 65.81658 
L 153.819487 69.296273 
L 157.805201 71.166667 
L 161.790915 73.840249 
L 165.776629 75.905819 
L 169.762344 78.80577 
L 173.748058 80.143111 
L 177.733772 88.812167 
L 181.719487 91.622906 
L 185.705201 84.2578 
L 189.690915 77.081188 
L 193.676629 68.693751 
L 197.662344 85.870826 
" clip-path="url(#p4c53467d0e)" style="fill: none; stroke: #0173b2; stroke-width: 1.5; stroke-linecap: round"/>
   </g>
   <g id="line2d_17">
    <path d="M 42.219487 16.778906 
L 46.205201 17.016146 
L 50.190915 25.436499 
L 54.176629 26.886433 
L 58.162344 25.743457 
L 62.148058 23.573972 
L 66.133772 22.401512 
L 70.119487 21.056269 
L 74.105201 20.198398 
L 78.090915 19.923627 
L 82.076629 21.142212 
L 86.062344 23.067156 
L 90.048058 25.951612 
L 94.033772 31.109816 
L 98.019487 36.620172 
L 102.005201 43.000725 
L 105.990915 48.59921 
L 109.976629 55.623423 
L 113.962344 61.893698 
L 117.948058 67.624982 
L 121.933772 72.347454 
L 125.919487 75.841048 
L 129.905201 77.434998 
L 133.890915 79.669234 
L 137.876629 81.785579 
L 141.862344 83.865102 
L 145.848058 85.557314 
L 149.833772 88.534879 
L 153.819487 89.644235 
L 157.805201 89.519792 
L 161.790915 88.516468 
L 165.776629 88.554487 
L 169.762344 88.457851 
L 173.748058 88.648516 
L 177.733772 87.432186 
L 181.719487 86.383843 
L 185.705201 84.555805 
L 189.690915 90.077435 
L 193.676629 91.622906 
L 197.662344 46.121574 
" clip-path="url(#p4c53467d0e)" style="fill: none; stroke-dasharray: 1.5,2.475; stroke-dashoffset: 0; stroke: #de8f05; stroke-width: 1.5"/>
   </g>
   <g id="line2d_18">
    <path d="M 42.219487 16.778906 
L 46.205201 18.857906 
L 50.190915 33.410906 
L 54.176629 37.568906 
L 58.162344 37.568906 
L 62.148058 37.568906 
L 66.133772 37.568906 
L 70.119487 33.410906 
L 74.105201 33.410906 
L 78.090915 33.410906 
L 82.076629 33.410906 
L 86.062344 36.529406 
L 90.048058 39.647906 
L 94.033772 45.884906 
L 98.019487 50.042906 
L 102.005201 58.358906 
L 105.990915 66.674906 
L 109.976629 70.832906 
L 113.962344 74.990906 
L 117.948058 79.148906 
L 121.933772 83.306906 
L 125.919487 83.306906 
L 129.905201 83.306906 
L 133.890915 87.464906 
L 137.876629 87.464906 
L 141.862344 91.622906 
L 145.848058 91.622906 
L 149.833772 91.622906 
L 153.819487 89.543906 
L 157.805201 87.464906 
L 161.790915 83.306906 
L 165.776629 79.148906 
L 169.762344 74.990906 
L 173.748058 74.990906 
L 177.733772 70.832906 
L 181.719487 70.832906 
L 185.705201 66.674906 
L 189.690915 70.832906 
L 193.676629 66.674906 
L 197.662344 43.805906 
" clip-path="url(#p4c53467d0e)" style="fill: none; stroke-dasharray: 5.55,2.4; stroke-dashoffset: 0; stroke: #029e73; stroke-width: 1.5"/>
   </g>
   <g id="line2d_19">
    <path d="M 42.219487 33.59284 
L 46.205201 33.061802 
L 50.190915 34.789355 
L 54.176629 33.27421 
L 58.162344 28.591761 
L 62.148058 24.119468 
L 66.133772 20.75511 
L 70.119487 18.539426 
L 74.105201 17.804807 
L 78.090915 16.778906 
L 82.076629 18.128537 
L 86.062344 21.010557 
L 90.048058 25.224667 
L 94.033772 31.737144 
L 98.019487 39.323741 
L 102.005201 47.453418 
L 105.990915 53.641294 
L 109.976629 63.896567 
L 113.962344 73.026838 
L 117.948058 78.68115 
L 121.933772 83.254782 
L 125.919487 85.933609 
L 129.905201 87.353262 
L 133.890915 88.582188 
L 137.876629 89.551385 
L 141.862344 90.148435 
L 145.848058 90.790742 
L 149.833772 91.225062 
L 153.819487 91.622906 
L 157.805201 91.215512 
L 161.790915 90.227285 
L 165.776629 90.189079 
L 169.762344 89.838944 
L 173.748058 89.465533 
L 177.733772 88.550136 
L 181.719487 88.824518 
L 185.705201 88.75453 
L 189.690915 91.397307 
L 193.676629 91.110724 
L 197.662344 80.2439 
" clip-path="url(#p4c53467d0e)" style="fill: none; stroke-dasharray: 9.6,2.4,1.5,2.4; stroke-dashoffset: 0; stroke: #d55e00; stroke-width: 1.5"/>
   </g>
   <g id="patch_3">
    <path d="M 40.226231 91.622906 
L 40.226231 16.778906 
L 46.105558 16.778906 
L 46.105558 91.622906 
z
" clip-path="url(#p4c53467d0e)" style="fill: #ffffff; opacity: 0.98"/>
   </g>
   <g id="patch_4">
    <path d="M 46.105558 91.622906 
L 46.105558 16.778906 
L 49.991629 16.778906 
L 49.991629 91.622906 
z
" clip-path="url(#p4c53467d0e)" style="fill: #ffffff; opacity: 0.98"/>
   </g>
   <g id="patch_5">
    <path d="M 49.991629 91.622906 
L 49.991629 16.778906 
L 53.877701 16.778906 
L 53.877701 91.622906 
z
" clip-path="url(#p4c53467d0e)" style="fill: #ffffff; opacity: 0.96"/>
   </g>
   <g id="patch_6">
    <path d="M 53.877701 91.622906 
L 53.877701 16.778906 
L 57.763772 16.778906 
L 57.763772 91.622906 
z
" clip-path="url(#p4c53467d0e)" style="fill: #ffffff; opacity: 0.93"/>
   </g>
   <g id="patch_7">
    <path d="M 57.763772 91.622906 
L 57.763772 16.778906 
L 61.649844 16.778906 
L 61.649844 91.622906 
z
" clip-path="url(#p4c53467d0e)" style="fill: #ffffff; opacity: 0.77"/>
   </g>
   <g id="patch_8">
    <path d="M 61.649844 91.622906 
L 61.649844 16.778906 
L 65.535915 16.778906 
L 65.535915 91.622906 
z
" clip-path="url(#p4c53467d0e)" style="fill: #ffffff; opacity: 0.57"/>
   </g>
   <g id="patch_9">
    <path d="M 65.535915 91.622906 
L 65.535915 16.778906 
L 69.421987 16.778906 
L 69.421987 91.622906 
z
" clip-path="url(#p4c53467d0e)" style="fill: #ffffff; opacity: 0.42"/>
   </g>
   <g id="patch_10">
    <path d="M 69.421987 91.622906 
L 69.421987 16.778906 
L 73.308058 16.778906 
L 73.308058 91.622906 
z
" clip-path="url(#p4c53467d0e)" style="fill: #ffffff; opacity: 0.31"/>
   </g>
   <g id="patch_11">
    <path d="M 73.308058 91.622906 
L 73.308058 16.778906 
L 77.194129 16.778906 
L 77.194129 91.622906 
z
" clip-path="url(#p4c53467d0e)" style="fill: #ffffff; opacity: 0.21"/>
   </g>
   <g id="patch_12">
    <path d="M 77.194129 91.622906 
L 77.194129 16.778906 
L 81.080201 16.778906 
L 81.080201 91.622906 
z
" clip-path="url(#p4c53467d0e)" style="fill: #ffffff; opacity: 0.13"/>
   </g>
   <g id="patch_13">
    <path d="M 81.080201 91.622906 
L 81.080201 16.778906 
L 84.966272 16.778906 
L 84.966272 91.622906 
L 81.080201 91.622906 
z
" clip-path="url(#p4c53467d0e)" style="fill: none; opacity: 0"/>
   </g>
   <g id="patch_14">
    <path d="M 84.966272 91.622906 
L 84.966272 16.778906 
L 88.852344 16.778906 
L 88.852344 91.622906 
z
" clip-path="url(#p4c53467d0e)" style="fill: #ffffff; opacity: 0.01"/>
   </g>
   <g id="patch_15">
    <path d="M 88.852344 91.622906 
L 88.852344 16.778906 
L 92.738415 16.778906 
L 92.738415 91.622906 
z
" clip-path="url(#p4c53467d0e)" style="fill: #ffffff; opacity: 0.04"/>
   </g>
   <g id="patch_16">
    <path d="M 92.738415 91.622906 
L 92.738415 16.778906 
L 96.624487 16.778906 
L 96.624487 91.622906 
z
" clip-path="url(#p4c53467d0e)" style="fill: #ffffff; opacity: 0.13"/>
   </g>
   <g id="patch_17">
    <path d="M 96.624487 91.622906 
L 96.624487 16.778906 
L 100.510558 16.778906 
L 100.510558 91.622906 
z
" clip-path="url(#p4c53467d0e)" style="fill: #ffffff; opacity: 0.17"/>
   </g>
   <g id="patch_18">
    <path d="M 100.510558 91.622906 
L 100.510558 16.778906 
L 104.396629 16.778906 
L 104.396629 91.622906 
z
" clip-path="url(#p4c53467d0e)" style="fill: #ffffff; opacity: 0.15"/>
   </g>
   <g id="patch_19">
    <path d="M 104.396629 91.622906 
L 104.396629 16.778906 
L 108.282701 16.778906 
L 108.282701 91.622906 
z
" clip-path="url(#p4c53467d0e)" style="fill: #ffffff; opacity: 0.16"/>
   </g>
   <g id="patch_20">
    <path d="M 108.282701 91.622906 
L 108.282701 16.778906 
L 112.168772 16.778906 
L 112.168772 91.622906 
z
" clip-path="url(#p4c53467d0e)" style="fill: #ffffff; opacity: 0.25"/>
   </g>
   <g id="patch_21">
    <path d="M 112.168772 91.622906 
L 112.168772 16.778906 
L 116.054844 16.778906 
L 116.054844 91.622906 
z
" clip-path="url(#p4c53467d0e)" style="fill: #ffffff; opacity: 0.42"/>
   </g>
   <g id="patch_22">
    <path d="M 116.054844 91.622906 
L 116.054844 16.778906 
L 119.940915 16.778906 
L 119.940915 91.622906 
z
" clip-path="url(#p4c53467d0e)" style="fill: #ffffff; opacity: 0.56"/>
   </g>
   <g id="patch_23">
    <path d="M 119.940915 91.622906 
L 119.940915 16.778906 
L 123.826987 16.778906 
L 123.826987 91.622906 
z
" clip-path="url(#p4c53467d0e)" style="fill: #ffffff; opacity: 0.67"/>
   </g>
   <g id="patch_24">
    <path d="M 123.826987 91.622906 
L 123.826987 16.778906 
L 127.713058 16.778906 
L 127.713058 91.622906 
z
" clip-path="url(#p4c53467d0e)" style="fill: #ffffff; opacity: 0.74"/>
   </g>
   <g id="patch_25">
    <path d="M 127.713058 91.622906 
L 127.713058 16.778906 
L 131.599129 16.778906 
L 131.599129 91.622906 
z
" clip-path="url(#p4c53467d0e)" style="fill: #ffffff; opacity: 0.78"/>
   </g>
   <g id="patch_26">
    <path d="M 131.599129 91.622906 
L 131.599129 16.778906 
L 135.485201 16.778906 
L 135.485201 91.622906 
z
" clip-path="url(#p4c53467d0e)" style="fill: #ffffff; opacity: 0.73"/>
   </g>
   <g id="patch_27">
    <path d="M 135.485201 91.622906 
L 135.485201 16.778906 
L 139.371272 16.778906 
L 139.371272 91.622906 
z
" clip-path="url(#p4c53467d0e)" style="fill: #ffffff; opacity: 0.7"/>
   </g>
   <g id="patch_28">
    <path d="M 139.371272 91.622906 
L 139.371272 16.778906 
L 143.257344 16.778906 
L 143.257344 91.622906 
z
" clip-path="url(#p4c53467d0e)" style="fill: #ffffff; opacity: 0.66"/>
   </g>
   <g id="patch_29">
    <path d="M 143.257344 91.622906 
L 143.257344 16.778906 
L 147.143415 16.778906 
L 147.143415 91.622906 
z
" clip-path="url(#p4c53467d0e)" style="fill: #ffffff; opacity: 0.67"/>
   </g>
   <g id="patch_30">
    <path d="M 147.143415 91.622906 
L 147.143415 16.778906 
L 151.029487 16.778906 
L 151.029487 91.622906 
z
" clip-path="url(#p4c53467d0e)" style="fill: #ffffff; opacity: 0.76"/>
   </g>
   <g id="patch_31">
    <path d="M 151.029487 91.622906 
L 151.029487 16.778906 
L 154.915558 16.778906 
L 154.915558 91.622906 
z
" clip-path="url(#p4c53467d0e)" style="fill: #ffffff; opacity: 0.81"/>
   </g>
   <g id="patch_32">
    <path d="M 154.915558 91.622906 
L 154.915558 16.778906 
L 158.801629 16.778906 
L 158.801629 91.622906 
z
" clip-path="url(#p4c53467d0e)" style="fill: #ffffff; opacity: 0.85"/>
   </g>
   <g id="patch_33">
    <path d="M 158.801629 91.622906 
L 158.801629 16.778906 
L 162.687701 16.778906 
L 162.687701 91.622906 
z
" clip-path="url(#p4c53467d0e)" style="fill: #ffffff; opacity: 0.88"/>
   </g>
   <g id="patch_34">
    <path d="M 162.687701 91.622906 
L 162.687701 16.778906 
L 166.573772 16.778906 
L 166.573772 91.622906 
z
" clip-path="url(#p4c53467d0e)" style="fill: #ffffff; opacity: 0.93"/>
   </g>
   <g id="patch_35">
    <path d="M 166.573772 91.622906 
L 166.573772 16.778906 
L 170.459844 16.778906 
L 170.459844 91.622906 
z
" clip-path="url(#p4c53467d0e)" style="fill: #ffffff; opacity: 0.95"/>
   </g>
   <g id="patch_36">
    <path d="M 170.459844 91.622906 
L 170.459844 16.778906 
L 174.345915 16.778906 
L 174.345915 91.622906 
z
" clip-path="url(#p4c53467d0e)" style="fill: #ffffff; opacity: 0.94"/>
   </g>
   <g id="patch_37">
    <path d="M 174.345915 91.622906 
L 174.345915 16.778906 
L 178.231987 16.778906 
L 178.231987 91.622906 
z
" clip-path="url(#p4c53467d0e)" style="fill: #ffffff; opacity: 0.95"/>
   </g>
   <g id="patch_38">
    <path d="M 178.231987 91.622906 
L 178.231987 16.778906 
L 182.118058 16.778906 
L 182.118058 91.622906 
z
" clip-path="url(#p4c53467d0e)" style="fill: #ffffff; opacity: 0.95"/>
   </g>
   <g id="patch_39">
    <path d="M 182.118058 91.622906 
L 182.118058 16.778906 
L 186.004129 16.778906 
L 186.004129 91.622906 
z
" clip-path="url(#p4c53467d0e)" style="fill: #ffffff; opacity: 0.97"/>
   </g>
   <g id="patch_40">
    <path d="M 186.004129 91.622906 
L 186.004129 16.778906 
L 189.890201 16.778906 
L 189.890201 91.622906 
z
" clip-path="url(#p4c53467d0e)" style="fill: #ffffff; opacity: 0.98"/>
   </g>
   <g id="patch_41">
    <path d="M 189.890201 91.622906 
L 189.890201 16.778906 
L 193.776272 16.778906 
L 193.776272 91.622906 
z
" clip-path="url(#p4c53467d0e)" style="fill: #ffffff; opacity: 0.99"/>
   </g>
   <g id="patch_42">
    <path d="M 193.776272 91.622906 
L 193.776272 16.778906 
L 201.648058 16.778906 
L 201.648058 91.622906 
z
" clip-path="url(#p4c53467d0e)" style="fill: #ffffff"/>
   </g>
   <g id="patch_43">
    <path d="M 30.262344 91.622906 
L 30.262344 16.778906 
" style="fill: none; stroke: #262626; stroke-width: 0.8; stroke-linejoin: miter; stroke-linecap: square"/>
   </g>
   <g id="patch_44">
    <path d="M 30.262344 91.622906 
L 197.662344 91.622906 
" style="fill: none; stroke: #262626; stroke-width: 0.8; stroke-linejoin: miter; stroke-linecap: square"/>
   </g>
   <g id="text_18">
    <!-- Rhythm Parameters at distances to exit -->
    <g style="fill: #262626" transform="translate(70.335781 10.778906) scale(0.05 -0.05)">
     <defs>
      <path id="ArialMT-79" d="M 397 -1278 
L 334 -750 
Q 519 -800 656 -800 
Q 844 -800 956 -737 
Q 1069 -675 1141 -563 
Q 1194 -478 1313 -144 
Q 1328 -97 1363 -6 
L 103 3319 
L 709 3319 
L 1400 1397 
Q 1534 1031 1641 628 
Q 1738 1016 1872 1384 
L 2581 3319 
L 3144 3319 
L 1881 -56 
Q 1678 -603 1566 -809 
Q 1416 -1088 1222 -1217 
Q 1028 -1347 759 -1347 
Q 597 -1347 397 -1278 
z
" transform="scale(0.015625)"/>
     </defs>
     <use xlink:href="#ArialMT-52"/>
     <use xlink:href="#ArialMT-68" x="72.216797"/>
     <use xlink:href="#ArialMT-79" x="127.832031"/>
     <use xlink:href="#ArialMT-74" x="177.832031"/>
     <use xlink:href="#ArialMT-68" x="205.615234"/>
     <use xlink:href="#ArialMT-6d" x="261.230469"/>
     <use xlink:href="#ArialMT-20" x="344.53125"/>
     <use xlink:href="#ArialMT-50" x="372.314453"/>
     <use xlink:href="#ArialMT-61" x="439.013672"/>
     <use xlink:href="#ArialMT-72" x="494.628906"/>
     <use xlink:href="#ArialMT-61" x="527.929688"/>
     <use xlink:href="#ArialMT-6d" x="583.544922"/>
     <use xlink:href="#ArialMT-65" x="666.845703"/>
     <use xlink:href="#ArialMT-74" x="722.460938"/>
     <use xlink:href="#ArialMT-65" x="750.244141"/>
     <use xlink:href="#ArialMT-72" x="805.859375"/>
     <use xlink:href="#ArialMT-73" x="839.160156"/>
     <use xlink:href="#ArialMT-20" x="889.160156"/>
     <use xlink:href="#ArialMT-61" x="916.943359"/>
     <use xlink:href="#ArialMT-74" x="972.558594"/>
     <use xlink:href="#ArialMT-20" x="1000.341797"/>
     <use xlink:href="#ArialMT-64" x="1028.125"/>
     <use xlink:href="#ArialMT-69" x="1083.740234"/>
     <use xlink:href="#ArialMT-73" x="1105.957031"/>
     <use xlink:href="#ArialMT-74" x="1155.957031"/>
     <use xlink:href="#ArialMT-61" x="1183.740234"/>
     <use xlink:href="#ArialMT-6e" x="1239.355469"/>
     <use xlink:href="#ArialMT-63" x="1294.970703"/>
     <use xlink:href="#ArialMT-65" x="1344.970703"/>
     <use xlink:href="#ArialMT-73" x="1400.585938"/>
     <use xlink:href="#ArialMT-20" x="1450.585938"/>
     <use xlink:href="#ArialMT-74" x="1478.369141"/>
     <use xlink:href="#ArialMT-6f" x="1506.152344"/>
     <use xlink:href="#ArialMT-20" x="1561.767578"/>
     <use xlink:href="#ArialMT-65" x="1589.550781"/>
     <use xlink:href="#ArialMT-78" x="1645.166016"/>
     <use xlink:href="#ArialMT-69" x="1695.166016"/>
     <use xlink:href="#ArialMT-74" x="1717.382812"/>
    </g>
   </g>
   <g id="legend_1">
    <g id="line2d_20">
     <path d="M 147.199063 23.107813 
L 152.199063 23.107813 
L 157.199063 23.107813 
" style="fill: none; stroke: #0173b2; stroke-width: 1.5; stroke-linecap: round"/>
    </g>
    <g id="text_19">
     <!-- Phase Median -->
     <g style="fill: #262626" transform="translate(161.199063 24.857813) scale(0.05 -0.05)">
      <use xlink:href="#ArialMT-50"/>
      <use xlink:href="#ArialMT-68" x="66.699219"/>
      <use xlink:href="#ArialMT-61" x="122.314453"/>
      <use xlink:href="#ArialMT-73" x="177.929688"/>
      <use xlink:href="#ArialMT-65" x="227.929688"/>
      <use xlink:href="#ArialMT-20" x="283.544922"/>
      <use xlink:href="#ArialMT-4d" x="311.328125"/>
      <use xlink:href="#ArialMT-65" x="394.628906"/>
      <use xlink:href="#ArialMT-64" x="450.244141"/>
      <use xlink:href="#ArialMT-69" x="505.859375"/>
      <use xlink:href="#ArialMT-61" x="528.076172"/>
      <use xlink:href="#ArialMT-6e" x="583.691406"/>
     </g>
    </g>
    <g id="line2d_21">
     <path d="M 147.199063 30.180469 
L 152.199063 30.180469 
L 157.199063 30.180469 
" style="fill: none; stroke-dasharray: 1.5,2.475; stroke-dashoffset: 0; stroke: #de8f05; stroke-width: 1.5"/>
    </g>
    <g id="text_20">
     <!-- Phase Std -->
     <g style="fill: #262626" transform="translate(161.199063 31.930469) scale(0.05 -0.05)">
      <use xlink:href="#ArialMT-50"/>
      <use xlink:href="#ArialMT-68" x="66.699219"/>
      <use xlink:href="#ArialMT-61" x="122.314453"/>
      <use xlink:href="#ArialMT-73" x="177.929688"/>
      <use xlink:href="#ArialMT-65" x="227.929688"/>
      <use xlink:href="#ArialMT-20" x="283.544922"/>
      <use xlink:href="#ArialMT-53" x="311.328125"/>
      <use xlink:href="#ArialMT-74" x="378.027344"/>
      <use xlink:href="#ArialMT-64" x="405.810547"/>
     </g>
    </g>
    <g id="line2d_22">
     <path d="M 147.199063 37.253125 
L 152.199063 37.253125 
L 157.199063 37.253125 
" style="fill: none; stroke-dasharray: 5.55,2.4; stroke-dashoffset: 0; stroke: #029e73; stroke-width: 1.5"/>
    </g>
    <g id="text_21">
     <!-- Age Median -->
     <g style="fill: #262626" transform="translate(161.199063 39.003125) scale(0.05 -0.05)">
      <use xlink:href="#ArialMT-41"/>
      <use xlink:href="#ArialMT-67" x="66.699219"/>
      <use xlink:href="#ArialMT-65" x="122.314453"/>
      <use xlink:href="#ArialMT-20" x="177.929688"/>
      <use xlink:href="#ArialMT-4d" x="205.712891"/>
      <use xlink:href="#ArialMT-65" x="289.013672"/>
      <use xlink:href="#ArialMT-64" x="344.628906"/>
      <use xlink:href="#ArialMT-69" x="400.244141"/>
      <use xlink:href="#ArialMT-61" x="422.460938"/>
      <use xlink:href="#ArialMT-6e" x="478.076172"/>
     </g>
    </g>
    <g id="line2d_23">
     <path d="M 147.199063 44.384375 
L 152.199063 44.384375 
L 157.199063 44.384375 
" style="fill: none; stroke-dasharray: 9.6,2.4,1.5,2.4; stroke-dashoffset: 0; stroke: #d55e00; stroke-width: 1.5"/>
    </g>
    <g id="text_22">
     <!-- R² Median -->
     <g style="fill: #262626" transform="translate(161.199063 46.134375) scale(0.05 -0.05)">
      <use xlink:href="#ArialMT-52"/>
      <use xlink:href="#ArialMT-b2" x="72.216797"/>
      <use xlink:href="#ArialMT-20" x="105.517578"/>
      <use xlink:href="#ArialMT-4d" x="133.300781"/>
      <use xlink:href="#ArialMT-65" x="216.601562"/>
      <use xlink:href="#ArialMT-64" x="272.216797"/>
      <use xlink:href="#ArialMT-69" x="327.832031"/>
      <use xlink:href="#ArialMT-61" x="350.048828"/>
      <use xlink:href="#ArialMT-6e" x="405.664062"/>
     </g>
    </g>
   </g>
  </g>
  <g id="axes_2">
   <g id="patch_45">
    <path d="M 214.402344 91.622906 
L 214.402344 91.622906 
L 214.402344 16.778906 
L 214.402344 16.778906 
z
" style="fill: #ffffff"/>
   </g>
   <g id="matplotlib.axis_3">
    <g id="ytick_7">
     <g id="line2d_24">
      <g>
       <use xlink:href="#mfb46f8e8d3" x="214.402344" y="91.622906" style="fill: #262626; stroke: #262626; stroke-width: 0.4"/>
      </g>
     </g>
     <g id="text_23">
      <!-- 12.8 -->
      <g style="fill: #262626" transform="translate(202.671875 93.412359) scale(0.05 -0.05)">
       <use xlink:href="#ArialMT-31"/>
       <use xlink:href="#ArialMT-32" x="55.615234"/>
       <use xlink:href="#ArialMT-2e" x="111.230469"/>
       <use xlink:href="#ArialMT-38" x="139.013672"/>
      </g>
     </g>
    </g>
    <g id="ytick_8">
     <g id="line2d_25">
      <g>
       <use xlink:href="#mfb46f8e8d3" x="214.402344" y="76.654106" style="fill: #262626; stroke: #262626; stroke-width: 0.4"/>
      </g>
     </g>
     <g id="text_24">
      <!-- 12.6 -->
      <g style="fill: #262626" transform="translate(202.671875 78.443559) scale(0.05 -0.05)">
       <use xlink:href="#ArialMT-31"/>
       <use xlink:href="#ArialMT-32" x="55.615234"/>
       <use xlink:href="#ArialMT-2e" x="111.230469"/>
       <use xlink:href="#ArialMT-36" x="139.013672"/>
      </g>
     </g>
    </g>
    <g id="ytick_9">
     <g id="line2d_26">
      <g>
       <use xlink:href="#mfb46f8e8d3" x="214.402344" y="61.685306" style="fill: #262626; stroke: #262626; stroke-width: 0.4"/>
      </g>
     </g>
     <g id="text_25">
      <!-- 12.3 -->
      <g style="fill: #262626" transform="translate(202.671875 63.474759) scale(0.05 -0.05)">
       <use xlink:href="#ArialMT-31"/>
       <use xlink:href="#ArialMT-32" x="55.615234"/>
       <use xlink:href="#ArialMT-2e" x="111.230469"/>
       <use xlink:href="#ArialMT-33" x="139.013672"/>
      </g>
     </g>
    </g>
    <g id="ytick_10">
     <g id="line2d_27">
      <g>
       <use xlink:href="#mfb46f8e8d3" x="214.402344" y="46.716506" style="fill: #262626; stroke: #262626; stroke-width: 0.4"/>
      </g>
     </g>
     <g id="text_26">
      <!-- 12.1 -->
      <g style="fill: #262626" transform="translate(202.671875 48.505959) scale(0.05 -0.05)">
       <use xlink:href="#ArialMT-31"/>
       <use xlink:href="#ArialMT-32" x="55.615234"/>
       <use xlink:href="#ArialMT-2e" x="111.230469"/>
       <use xlink:href="#ArialMT-31" x="139.013672"/>
      </g>
     </g>
    </g>
    <g id="ytick_11">
     <g id="line2d_28">
      <g>
       <use xlink:href="#mfb46f8e8d3" x="214.402344" y="31.747706" style="fill: #262626; stroke: #262626; stroke-width: 0.4"/>
      </g>
     </g>
     <g id="text_27">
      <!-- 11.9 -->
      <g style="fill: #262626" transform="translate(203.040625 33.537159) scale(0.05 -0.05)">
       <defs>
        <path id="ArialMT-39" d="M 350 1059 
L 891 1109 
Q 959 728 1153 556 
Q 1347 384 1650 384 
Q 1909 384 2104 503 
Q 2300 622 2425 820 
Q 2550 1019 2634 1356 
Q 2719 1694 2719 2044 
Q 2719 2081 2716 2156 
Q 2547 1888 2255 1720 
Q 1963 1553 1622 1553 
Q 1053 1553 659 1965 
Q 266 2378 266 3053 
Q 266 3750 677 4175 
Q 1088 4600 1706 4600 
Q 2153 4600 2523 4359 
Q 2894 4119 3086 3673 
Q 3278 3228 3278 2384 
Q 3278 1506 3087 986 
Q 2897 466 2520 194 
Q 2144 -78 1638 -78 
Q 1100 -78 759 220 
Q 419 519 350 1059 
z
M 2653 3081 
Q 2653 3566 2395 3850 
Q 2138 4134 1775 4134 
Q 1400 4134 1122 3828 
Q 844 3522 844 3034 
Q 844 2597 1108 2323 
Q 1372 2050 1759 2050 
Q 2150 2050 2401 2323 
Q 2653 2597 2653 3081 
z
" transform="scale(0.015625)"/>
       </defs>
       <use xlink:href="#ArialMT-31"/>
       <use xlink:href="#ArialMT-31" x="48.240234"/>
       <use xlink:href="#ArialMT-2e" x="103.855469"/>
       <use xlink:href="#ArialMT-39" x="131.638672"/>
      </g>
     </g>
    </g>
    <g id="ytick_12">
     <g id="line2d_29">
      <g>
       <use xlink:href="#mfb46f8e8d3" x="214.402344" y="16.778906" style="fill: #262626; stroke: #262626; stroke-width: 0.4"/>
      </g>
     </g>
     <g id="text_28">
      <!-- 11.7 -->
      <g style="fill: #262626" transform="translate(203.040625 18.568359) scale(0.05 -0.05)">
       <defs>
        <path id="ArialMT-37" d="M 303 3981 
L 303 4522 
L 3269 4522 
L 3269 4084 
Q 2831 3619 2401 2847 
Q 1972 2075 1738 1259 
Q 1569 684 1522 0 
L 944 0 
Q 953 541 1156 1306 
Q 1359 2072 1739 2783 
Q 2119 3494 2547 3981 
L 303 3981 
z
" transform="scale(0.015625)"/>
       </defs>
       <use xlink:href="#ArialMT-31"/>
       <use xlink:href="#ArialMT-31" x="48.240234"/>
       <use xlink:href="#ArialMT-2e" x="103.855469"/>
       <use xlink:href="#ArialMT-37" x="131.638672"/>
      </g>
     </g>
    </g>
   </g>
   <g id="patch_46">
    <path d="M 214.402344 91.622906 
L 214.402344 16.778906 
" style="fill: none; stroke: #262626; stroke-width: 0.8; stroke-linejoin: miter; stroke-linecap: square"/>
   </g>
   <g id="patch_47">
    <path d="M 214.402344 91.622906 
L 214.402344 91.622906 
" style="fill: none; stroke: #262626; stroke-width: 0.8; stroke-linejoin: miter; stroke-linecap: square"/>
   </g>
   <g id="text_29">
    <!-- P -->
    <g style="fill: #262626" transform="translate(212.734766 10.778906) scale(0.05 -0.05)">
     <use xlink:href="#ArialMT-50"/>
    </g>
   </g>
  </g>
  <g id="axes_3">
   <g id="patch_48">
    <path d="M 231.142344 91.622906 
L 231.142344 91.622906 
L 231.142344 16.778906 
L 231.142344 16.778906 
z
" style="fill: #ffffff"/>
   </g>
   <g id="matplotlib.axis_4">
    <g id="ytick_13">
     <g id="line2d_30">
      <g>
       <use xlink:href="#mfb46f8e8d3" x="231.142344" y="91.622906" style="fill: #262626; stroke: #262626; stroke-width: 0.4"/>
      </g>
     </g>
     <g id="text_30">
      <!-- 4.0 -->
      <g style="fill: #262626" transform="translate(222.192344 93.412359) scale(0.05 -0.05)">
       <use xlink:href="#ArialMT-34"/>
       <use xlink:href="#ArialMT-2e" x="55.615234"/>
       <use xlink:href="#ArialMT-30" x="83.398438"/>
      </g>
     </g>
    </g>
    <g id="ytick_14">
     <g id="line2d_31">
      <g>
       <use xlink:href="#mfb46f8e8d3" x="231.142344" y="76.654106" style="fill: #262626; stroke: #262626; stroke-width: 0.4"/>
      </g>
     </g>
     <g id="text_31">
      <!-- 3.5 -->
      <g style="fill: #262626" transform="translate(222.192344 78.443559) scale(0.05 -0.05)">
       <use xlink:href="#ArialMT-33"/>
       <use xlink:href="#ArialMT-2e" x="55.615234"/>
       <use xlink:href="#ArialMT-35" x="83.398438"/>
      </g>
     </g>
    </g>
    <g id="ytick_15">
     <g id="line2d_32">
      <g>
       <use xlink:href="#mfb46f8e8d3" x="231.142344" y="61.685306" style="fill: #262626; stroke: #262626; stroke-width: 0.4"/>
      </g>
     </g>
     <g id="text_32">
      <!-- 3.0 -->
      <g style="fill: #262626" transform="translate(222.192344 63.474759) scale(0.05 -0.05)">
       <use xlink:href="#ArialMT-33"/>
       <use xlink:href="#ArialMT-2e" x="55.615234"/>
       <use xlink:href="#ArialMT-30" x="83.398438"/>
      </g>
     </g>
    </g>
    <g id="ytick_16">
     <g id="line2d_33">
      <g>
       <use xlink:href="#mfb46f8e8d3" x="231.142344" y="46.716506" style="fill: #262626; stroke: #262626; stroke-width: 0.4"/>
      </g>
     </g>
     <g id="text_33">
      <!-- 2.6 -->
      <g style="fill: #262626" transform="translate(222.192344 48.505959) scale(0.05 -0.05)">
       <use xlink:href="#ArialMT-32"/>
       <use xlink:href="#ArialMT-2e" x="55.615234"/>
       <use xlink:href="#ArialMT-36" x="83.398438"/>
      </g>
     </g>
    </g>
    <g id="ytick_17">
     <g id="line2d_34">
      <g>
       <use xlink:href="#mfb46f8e8d3" x="231.142344" y="31.747706" style="fill: #262626; stroke: #262626; stroke-width: 0.4"/>
      </g>
     </g>
     <g id="text_34">
      <!-- 2.1 -->
      <g style="fill: #262626" transform="translate(222.192344 33.537159) scale(0.05 -0.05)">
       <use xlink:href="#ArialMT-32"/>
       <use xlink:href="#ArialMT-2e" x="55.615234"/>
       <use xlink:href="#ArialMT-31" x="83.398438"/>
      </g>
     </g>
    </g>
    <g id="ytick_18">
     <g id="line2d_35">
      <g>
       <use xlink:href="#mfb46f8e8d3" x="231.142344" y="16.778906" style="fill: #262626; stroke: #262626; stroke-width: 0.4"/>
      </g>
     </g>
     <g id="text_35">
      <!-- 1.7 -->
      <g style="fill: #262626" transform="translate(222.192344 18.568359) scale(0.05 -0.05)">
       <use xlink:href="#ArialMT-31"/>
       <use xlink:href="#ArialMT-2e" x="55.615234"/>
       <use xlink:href="#ArialMT-37" x="83.398438"/>
      </g>
     </g>
    </g>
   </g>
   <g id="patch_49">
    <path d="M 231.142344 91.622906 
L 231.142344 16.778906 
" style="fill: none; stroke: #262626; stroke-width: 0.8; stroke-linejoin: miter; stroke-linecap: square"/>
   </g>
   <g id="patch_50">
    <path d="M 231.142344 91.622906 
L 231.142344 16.778906 
" style="fill: none; stroke: #262626; stroke-width: 0.8; stroke-linejoin: miter; stroke-linecap: square"/>
   </g>
   <g id="patch_51">
    <path d="M 231.142344 91.622906 
L 231.142344 91.622906 
" style="fill: none; stroke: #262626; stroke-width: 0.8; stroke-linejoin: miter; stroke-linecap: square"/>
   </g>
   <g id="patch_52">
    <path d="M 231.142344 16.778906 
L 231.142344 16.778906 
" style="fill: none; stroke: #262626; stroke-width: 0.8; stroke-linejoin: miter; stroke-linecap: square"/>
   </g>
   <g id="text_36">
    <!-- PStd -->
    <g style="fill: #262626" transform="translate(225.722422 10.778906) scale(0.05 -0.05)">
     <use xlink:href="#ArialMT-50"/>
     <use xlink:href="#ArialMT-53" x="66.699219"/>
     <use xlink:href="#ArialMT-74" x="133.398438"/>
     <use xlink:href="#ArialMT-64" x="161.181641"/>
    </g>
   </g>
  </g>
  <g id="axes_4">
   <g id="patch_53">
    <path d="M 247.882344 91.622906 
L 247.882344 91.622906 
L 247.882344 16.778906 
L 247.882344 16.778906 
z
" style="fill: #ffffff"/>
   </g>
   <g id="matplotlib.axis_5">
    <g id="ytick_19">
     <g id="line2d_36">
      <g>
       <use xlink:href="#mfb46f8e8d3" x="247.882344" y="91.622906" style="fill: #262626; stroke: #262626; stroke-width: 0.4"/>
      </g>
     </g>
     <g id="text_37">
      <!-- 9.0 -->
      <g style="fill: #262626" transform="translate(238.932344 93.412359) scale(0.05 -0.05)">
       <use xlink:href="#ArialMT-39"/>
       <use xlink:href="#ArialMT-2e" x="55.615234"/>
       <use xlink:href="#ArialMT-30" x="83.398438"/>
      </g>
     </g>
    </g>
    <g id="ytick_20">
     <g id="line2d_37">
      <g>
       <use xlink:href="#mfb46f8e8d3" x="247.882344" y="76.654106" style="fill: #262626; stroke: #262626; stroke-width: 0.4"/>
      </g>
     </g>
     <g id="text_38">
      <!-- 12.6 -->
      <g style="fill: #262626" transform="translate(236.151875 78.443559) scale(0.05 -0.05)">
       <use xlink:href="#ArialMT-31"/>
       <use xlink:href="#ArialMT-32" x="55.615234"/>
       <use xlink:href="#ArialMT-2e" x="111.230469"/>
       <use xlink:href="#ArialMT-36" x="139.013672"/>
      </g>
     </g>
    </g>
    <g id="ytick_21">
     <g id="line2d_38">
      <g>
       <use xlink:href="#mfb46f8e8d3" x="247.882344" y="61.685306" style="fill: #262626; stroke: #262626; stroke-width: 0.4"/>
      </g>
     </g>
     <g id="text_39">
      <!-- 16.2 -->
      <g style="fill: #262626" transform="translate(236.151875 63.474759) scale(0.05 -0.05)">
       <use xlink:href="#ArialMT-31"/>
       <use xlink:href="#ArialMT-36" x="55.615234"/>
       <use xlink:href="#ArialMT-2e" x="111.230469"/>
       <use xlink:href="#ArialMT-32" x="139.013672"/>
      </g>
     </g>
    </g>
    <g id="ytick_22">
     <g id="line2d_39">
      <g>
       <use xlink:href="#mfb46f8e8d3" x="247.882344" y="46.716506" style="fill: #262626; stroke: #262626; stroke-width: 0.4"/>
      </g>
     </g>
     <g id="text_40">
      <!-- 19.8 -->
      <g style="fill: #262626" transform="translate(236.151875 48.505959) scale(0.05 -0.05)">
       <use xlink:href="#ArialMT-31"/>
       <use xlink:href="#ArialMT-39" x="55.615234"/>
       <use xlink:href="#ArialMT-2e" x="111.230469"/>
       <use xlink:href="#ArialMT-38" x="139.013672"/>
      </g>
     </g>
    </g>
    <g id="ytick_23">
     <g id="line2d_40">
      <g>
       <use xlink:href="#mfb46f8e8d3" x="247.882344" y="31.747706" style="fill: #262626; stroke: #262626; stroke-width: 0.4"/>
      </g>
     </g>
     <g id="text_41">
      <!-- 23.4 -->
      <g style="fill: #262626" transform="translate(236.151875 33.537159) scale(0.05 -0.05)">
       <use xlink:href="#ArialMT-32"/>
       <use xlink:href="#ArialMT-33" x="55.615234"/>
       <use xlink:href="#ArialMT-2e" x="111.230469"/>
       <use xlink:href="#ArialMT-34" x="139.013672"/>
      </g>
     </g>
    </g>
    <g id="ytick_24">
     <g id="line2d_41">
      <g>
       <use xlink:href="#mfb46f8e8d3" x="247.882344" y="16.778906" style="fill: #262626; stroke: #262626; stroke-width: 0.4"/>
      </g>
     </g>
     <g id="text_42">
      <!-- 27.0 -->
      <g style="fill: #262626" transform="translate(236.151875 18.568359) scale(0.05 -0.05)">
       <use xlink:href="#ArialMT-32"/>
       <use xlink:href="#ArialMT-37" x="55.615234"/>
       <use xlink:href="#ArialMT-2e" x="111.230469"/>
       <use xlink:href="#ArialMT-30" x="139.013672"/>
      </g>
     </g>
    </g>
   </g>
   <g id="patch_54">
    <path d="M 247.882344 91.622906 
L 247.882344 16.778906 
" style="fill: none; stroke: #262626; stroke-width: 0.8; stroke-linejoin: miter; stroke-linecap: square"/>
   </g>
   <g id="patch_55">
    <path d="M 247.882344 91.622906 
L 247.882344 16.778906 
" style="fill: none; stroke: #262626; stroke-width: 0.8; stroke-linejoin: miter; stroke-linecap: square"/>
   </g>
   <g id="patch_56">
    <path d="M 247.882344 91.622906 
L 247.882344 91.622906 
" style="fill: none; stroke: #262626; stroke-width: 0.8; stroke-linejoin: miter; stroke-linecap: square"/>
   </g>
   <g id="patch_57">
    <path d="M 247.882344 16.778906 
L 247.882344 16.778906 
" style="fill: none; stroke: #262626; stroke-width: 0.8; stroke-linejoin: miter; stroke-linecap: square"/>
   </g>
   <g id="text_43">
    <!-- Age -->
    <g style="fill: #262626" transform="translate(243.434297 10.778906) scale(0.05 -0.05)">
     <use xlink:href="#ArialMT-41"/>
     <use xlink:href="#ArialMT-67" x="66.699219"/>
     <use xlink:href="#ArialMT-65" x="122.314453"/>
    </g>
   </g>
  </g>
  <g id="axes_5">
   <g id="patch_58">
    <path d="M 264.622344 91.622906 
L 264.622344 91.622906 
L 264.622344 16.778906 
L 264.622344 16.778906 
z
" style="fill: #ffffff"/>
   </g>
   <g id="matplotlib.axis_6">
    <g id="ytick_25">
     <g id="line2d_42">
      <g>
       <use xlink:href="#mfb46f8e8d3" x="264.622344" y="91.622906" style="fill: #262626; stroke: #262626; stroke-width: 0.4"/>
      </g>
     </g>
     <g id="text_44">
      <!-- 0.08 -->
      <g style="fill: #262626" transform="translate(252.891875 93.412359) scale(0.05 -0.05)">
       <use xlink:href="#ArialMT-30"/>
       <use xlink:href="#ArialMT-2e" x="55.615234"/>
       <use xlink:href="#ArialMT-30" x="83.398438"/>
       <use xlink:href="#ArialMT-38" x="139.013672"/>
      </g>
     </g>
    </g>
    <g id="ytick_26">
     <g id="line2d_43">
      <g>
       <use xlink:href="#mfb46f8e8d3" x="264.622344" y="76.654106" style="fill: #262626; stroke: #262626; stroke-width: 0.4"/>
      </g>
     </g>
     <g id="text_45">
      <!-- 0.14 -->
      <g style="fill: #262626" transform="translate(252.891875 78.443559) scale(0.05 -0.05)">
       <use xlink:href="#ArialMT-30"/>
       <use xlink:href="#ArialMT-2e" x="55.615234"/>
       <use xlink:href="#ArialMT-31" x="83.398438"/>
       <use xlink:href="#ArialMT-34" x="139.013672"/>
      </g>
     </g>
    </g>
    <g id="ytick_27">
     <g id="line2d_44">
      <g>
       <use xlink:href="#mfb46f8e8d3" x="264.622344" y="61.685306" style="fill: #262626; stroke: #262626; stroke-width: 0.4"/>
      </g>
     </g>
     <g id="text_46">
      <!-- 0.21 -->
      <g style="fill: #262626" transform="translate(252.891875 63.474759) scale(0.05 -0.05)">
       <use xlink:href="#ArialMT-30"/>
       <use xlink:href="#ArialMT-2e" x="55.615234"/>
       <use xlink:href="#ArialMT-32" x="83.398438"/>
       <use xlink:href="#ArialMT-31" x="139.013672"/>
      </g>
     </g>
    </g>
    <g id="ytick_28">
     <g id="line2d_45">
      <g>
       <use xlink:href="#mfb46f8e8d3" x="264.622344" y="46.716506" style="fill: #262626; stroke: #262626; stroke-width: 0.4"/>
      </g>
     </g>
     <g id="text_47">
      <!-- 0.27 -->
      <g style="fill: #262626" transform="translate(252.891875 48.505959) scale(0.05 -0.05)">
       <use xlink:href="#ArialMT-30"/>
       <use xlink:href="#ArialMT-2e" x="55.615234"/>
       <use xlink:href="#ArialMT-32" x="83.398438"/>
       <use xlink:href="#ArialMT-37" x="139.013672"/>
      </g>
     </g>
    </g>
    <g id="ytick_29">
     <g id="line2d_46">
      <g>
       <use xlink:href="#mfb46f8e8d3" x="264.622344" y="31.747706" style="fill: #262626; stroke: #262626; stroke-width: 0.4"/>
      </g>
     </g>
     <g id="text_48">
      <!-- 0.34 -->
      <g style="fill: #262626" transform="translate(252.891875 33.537159) scale(0.05 -0.05)">
       <use xlink:href="#ArialMT-30"/>
       <use xlink:href="#ArialMT-2e" x="55.615234"/>
       <use xlink:href="#ArialMT-33" x="83.398438"/>
       <use xlink:href="#ArialMT-34" x="139.013672"/>
      </g>
     </g>
    </g>
    <g id="ytick_30">
     <g id="line2d_47">
      <g>
       <use xlink:href="#mfb46f8e8d3" x="264.622344" y="16.778906" style="fill: #262626; stroke: #262626; stroke-width: 0.4"/>
      </g>
     </g>
     <g id="text_49">
      <!-- 0.4 -->
      <g style="fill: #262626" transform="translate(255.672344 18.568359) scale(0.05 -0.05)">
       <use xlink:href="#ArialMT-30"/>
       <use xlink:href="#ArialMT-2e" x="55.615234"/>
       <use xlink:href="#ArialMT-34" x="83.398438"/>
      </g>
     </g>
    </g>
   </g>
   <g id="patch_59">
    <path d="M 264.622344 91.622906 
L 264.622344 16.778906 
" style="fill: none; stroke: #262626; stroke-width: 0.8; stroke-linejoin: miter; stroke-linecap: square"/>
   </g>
   <g id="patch_60">
    <path d="M 264.622344 91.622906 
L 264.622344 16.778906 
" style="fill: none; stroke: #262626; stroke-width: 0.8; stroke-linejoin: miter; stroke-linecap: square"/>
   </g>
   <g id="patch_61">
    <path d="M 264.622344 91.622906 
L 264.622344 91.622906 
" style="fill: none; stroke: #262626; stroke-width: 0.8; stroke-linejoin: miter; stroke-linecap: square"/>
   </g>
   <g id="patch_62">
    <path d="M 264.622344 16.778906 
L 264.622344 16.778906 
" style="fill: none; stroke: #262626; stroke-width: 0.8; stroke-linejoin: miter; stroke-linecap: square"/>
   </g>
   <g id="text_50">
    <!-- R² -->
    <g style="fill: #262626" transform="translate(261.984453 10.778906) scale(0.05 -0.05)">
     <use xlink:href="#ArialMT-52"/>
     <use xlink:href="#ArialMT-b2" x="72.216797"/>
    </g>
   </g>
  </g>
 </g>
 <defs>
  <clipPath id="p4c53467d0e">
   <rect x="30.262344" y="16.778906" width="167.4" height="74.844"/>
  </clipPath>
 </defs>
</svg>
